<svg width="94" height="25" viewBox="0 0 94 25" fill="none" xmlns="http://www.w3.org/2000/svg">
<g clip-path="url(#clip0_105_541)">
<path d="M73.9953 16.9228C74.0819 17.0276 74.1287 17.1585 74.1279 17.2932C74.1297 17.4059 74.0973 17.5165 74.0348 17.6111C73.9642 17.7103 73.8664 17.788 73.7527 17.835C73.6235 17.8924 73.4827 17.9208 73.3408 17.918H72.3929V15.596H73.2957C73.4382 15.5928 73.5798 15.6201 73.7104 15.6761C73.8163 15.7232 73.907 15.7978 73.9728 15.8918C74.0325 15.9823 74.0639 16.088 74.063 16.1958C74.0674 16.3156 74.0285 16.4331 73.953 16.5275C73.8797 16.6183 73.782 16.6872 73.6709 16.7266C73.8004 16.7496 73.9163 16.8197 73.9953 16.9228ZM72.7907 16.5718H73.2731C73.3791 16.5787 73.4842 16.5483 73.5694 16.4861C73.6066 16.4576 73.6359 16.4204 73.6546 16.3779C73.6734 16.3354 73.6809 16.2889 73.6766 16.2428C73.6794 16.1965 73.6713 16.1501 73.6526 16.1074C73.634 16.0647 73.6055 16.0268 73.5694 15.9968C73.4852 15.9324 73.3796 15.9009 73.2731 15.9083H72.7907V16.5718ZM73.6371 17.5144C73.6771 17.4805 73.7082 17.4377 73.7279 17.3896C73.7475 17.3415 73.7551 17.2895 73.7499 17.238C73.7535 17.186 73.7446 17.134 73.724 17.086C73.7035 17.038 73.6718 16.9954 73.6314 16.9615C73.5428 16.89 73.4301 16.8535 73.3155 16.8592H72.802V17.5835H73.3267C73.4309 17.5957 73.5362 17.5733 73.6258 17.5199L73.6371 17.5144Z" fill="#060432"/>
<path d="M76.1366 16.0935L74.9856 18.7998H74.585L74.9658 17.9041L74.2267 16.0935H74.647L75.1746 17.4978L75.7247 16.0935H76.1366Z" fill="#060432"/>
<path d="M79.6065 15.6015V17.9235H79.2172V16.334L78.495 17.9235H78.227L77.4992 16.334V17.9235H77.1127V15.6015H77.5302L78.3624 17.4232L79.189 15.6015H79.6065Z" fill="#060432"/>
<path d="M81.7224 17.144H80.2893C80.2944 17.2784 80.3537 17.4054 80.4542 17.4971C80.5546 17.5888 80.6881 17.6377 80.8253 17.6333C80.9169 17.639 81.0082 17.6175 81.0872 17.5716C81.1662 17.5258 81.2293 17.4577 81.2682 17.3762H81.6857C81.6305 17.5427 81.5228 17.6879 81.3782 17.7908C81.2139 17.9052 81.0154 17.9626 80.814 17.9539C80.6454 17.956 80.4791 17.9151 80.3316 17.835C80.1907 17.7565 80.0753 17.6406 79.9987 17.5006C79.9147 17.3469 79.8729 17.1745 79.8774 17.0002C79.8742 16.8276 79.9139 16.6569 79.9931 16.5027C80.0679 16.3631 80.1826 16.2478 80.3231 16.171C80.4737 16.091 80.6427 16.05 80.814 16.0521C80.9797 16.0492 81.1432 16.0892 81.288 16.1682C81.4247 16.2409 81.5365 16.3515 81.6096 16.4861C81.69 16.6309 81.7299 16.794 81.7252 16.9588C81.7289 17.0205 81.728 17.0824 81.7224 17.144ZM81.3303 16.8371C81.3312 16.7732 81.3177 16.7099 81.2909 16.6516C81.2641 16.5934 81.2246 16.5416 81.1751 16.4999C81.0714 16.4156 80.9403 16.3705 80.8055 16.3727C80.6785 16.371 80.5556 16.4164 80.4614 16.4999C80.3636 16.5877 80.3023 16.7078 80.2893 16.8371H81.3303Z" fill="#060432"/>
<path d="M82.2979 17.8737C82.1865 17.8281 82.0892 17.7547 82.0158 17.6609C81.9496 17.5733 81.9113 17.4684 81.9058 17.3596H82.3092C82.3133 17.3977 82.3254 17.4346 82.3448 17.468C82.3642 17.5013 82.3905 17.5302 82.422 17.5531C82.4978 17.6078 82.5902 17.6361 82.6844 17.6332C82.7736 17.6374 82.8621 17.6153 82.9383 17.5696C82.9656 17.5529 82.9882 17.5297 83.004 17.5022C83.0198 17.4747 83.0282 17.4437 83.0286 17.4121C83.0291 17.3793 83.0198 17.3472 83.0017 17.3196C82.9836 17.2921 82.9576 17.2704 82.927 17.2573C82.8242 17.2121 82.7175 17.1761 82.6082 17.1495C82.4914 17.1193 82.3765 17.0823 82.264 17.0389C82.1758 17.0029 82.0975 16.9471 82.0355 16.8758C81.9678 16.794 81.9327 16.6909 81.9368 16.5856C81.9361 16.4868 81.9667 16.3902 82.0242 16.3091C82.0897 16.2242 82.1775 16.1583 82.2781 16.1184C82.3987 16.0689 82.5283 16.0444 82.659 16.0465C82.845 16.0385 83.028 16.0953 83.1753 16.2069C83.2434 16.2589 83.2984 16.3256 83.3361 16.4019C83.3738 16.4781 83.3931 16.5617 83.3925 16.6464H83.006C83.0033 16.6084 82.9927 16.5713 82.9747 16.5376C82.9568 16.5038 82.9319 16.474 82.9016 16.4501C82.8307 16.3969 82.7426 16.3704 82.6534 16.3755C82.571 16.3702 82.4891 16.3905 82.4192 16.4335C82.3941 16.4499 82.3735 16.4721 82.3592 16.4981C82.3449 16.5242 82.3374 16.5532 82.3374 16.5828C82.3366 16.6061 82.3409 16.6293 82.3502 16.6508C82.3594 16.6723 82.3734 16.6915 82.391 16.7072C82.4291 16.7419 82.4743 16.7682 82.5236 16.7846C82.5772 16.8039 82.6534 16.8288 82.7577 16.8565C82.8715 16.8848 82.9828 16.9218 83.0906 16.967C83.1783 17.0027 83.2565 17.0575 83.3191 17.1274C83.3831 17.2058 83.418 17.3033 83.4179 17.4038C83.4181 17.5029 83.3865 17.5996 83.3276 17.6802C83.2647 17.7659 83.1787 17.8329 83.0794 17.8737C82.9559 17.9239 82.8236 17.9497 82.69 17.9497C82.5564 17.9497 82.4241 17.9239 82.3007 17.8737H82.2979Z" fill="#060432"/>
<path d="M85.0852 16.1433C85.2 16.2071 85.2925 16.3035 85.3504 16.4197C85.4192 16.5513 85.4532 16.6977 85.4491 16.8454V17.9318H85.0627V16.8952C85.0707 16.7582 85.0264 16.6233 84.9385 16.5165C84.8446 16.431 84.7211 16.3835 84.5929 16.3835C84.4647 16.3835 84.3413 16.431 84.2473 16.5165C84.1564 16.6218 84.1109 16.7576 84.1204 16.8952V17.9235H83.7311V15.4522H84.1204V16.2981C84.1875 16.218 84.2737 16.1553 84.3715 16.1157C84.476 16.073 84.5883 16.0514 84.7015 16.0521C84.8353 16.0498 84.9674 16.0812 85.0852 16.1433Z" fill="#060432"/>
<path d="M87.5396 16.0935V17.9345H87.1531V17.7162C87.0882 17.7943 87.0049 17.856 86.9104 17.8958C86.812 17.9391 86.7052 17.9608 86.5973 17.9594C86.4592 17.963 86.3225 17.9325 86.1995 17.871C86.0794 17.8085 85.9811 17.7122 85.9174 17.5945C85.8473 17.4635 85.8133 17.3167 85.8187 17.1688V16.0935H86.2136V17.1191C86.2041 17.2567 86.2497 17.3925 86.3406 17.4978C86.3848 17.5429 86.4385 17.5781 86.4979 17.601C86.5573 17.6239 86.621 17.634 86.6848 17.6305C86.7484 17.6334 86.812 17.6231 86.8714 17.6002C86.9307 17.5774 86.9844 17.5425 87.0289 17.4978C87.1209 17.3929 87.1674 17.2571 87.1587 17.1191V16.0935H87.5396Z" fill="#060432"/>
<path d="M88.338 15.4522V17.9235H87.9487V15.4522H88.338Z" fill="#060432"/>
<path d="M88.733 16.5054C88.805 16.3666 88.9154 16.2505 89.0516 16.1703C89.1878 16.0902 89.3443 16.0492 89.5032 16.0521C89.6371 16.0503 89.7696 16.0796 89.8897 16.1378C89.9922 16.1887 90.0818 16.2614 90.152 16.3506V16.0742H90.5442V17.9152H90.1633V17.6388C90.0917 17.7295 90.0001 17.8032 89.8953 17.8544C89.7749 17.9146 89.6412 17.945 89.506 17.9428C89.3497 17.9431 89.1964 17.901 89.0631 17.8212C88.9278 17.7365 88.8179 17.6182 88.7443 17.4784C88.6654 17.3251 88.6258 17.1553 88.6286 16.9836C88.6238 16.8183 88.6596 16.6543 88.733 16.5054ZM90.073 16.6713C90.0244 16.5831 89.9523 16.5095 89.8643 16.4584C89.7789 16.409 89.6814 16.3832 89.5822 16.3838C89.4827 16.3834 89.385 16.4088 89.2988 16.4573C89.2126 16.5059 89.141 16.5758 89.0913 16.6602C89.0375 16.7617 89.0103 16.8748 89.0123 16.9892C89.0107 17.1053 89.0378 17.22 89.0913 17.3236C89.1398 17.4142 89.2131 17.4898 89.3029 17.542C89.3883 17.5915 89.4858 17.6173 89.585 17.6167C89.6838 17.6173 89.7811 17.5925 89.8671 17.5448C89.9549 17.4923 90.027 17.4179 90.0758 17.3292C90.1306 17.226 90.1578 17.1109 90.1548 16.9947C90.156 16.8818 90.1278 16.7706 90.073 16.6713Z" fill="#060432"/>
<path d="M93.6219 16.1433C93.7427 16.2049 93.8412 16.3014 93.904 16.4197C93.9751 16.5505 94.0101 16.6973 94.0056 16.8454V17.9318H93.6191V16.8952C93.6271 16.7582 93.5829 16.6232 93.495 16.5165C93.401 16.431 93.2776 16.3835 93.1494 16.3835C93.0212 16.3835 92.8977 16.431 92.8038 16.5165C92.7129 16.6217 92.6673 16.7576 92.6768 16.8952V17.9235H92.2903V16.8952C92.2984 16.7582 92.2541 16.6232 92.1662 16.5165C92.0723 16.431 91.9488 16.3835 91.8206 16.3835C91.6924 16.3835 91.569 16.431 91.475 16.5165C91.3841 16.6217 91.3386 16.7576 91.3481 16.8952V17.9235H90.9531V16.0935H91.3424V16.3036C91.4083 16.2271 91.4913 16.1665 91.5851 16.1267C91.6837 16.0842 91.7904 16.0625 91.8982 16.0631C92.0376 16.0617 92.1752 16.0939 92.2988 16.1571C92.4196 16.2187 92.5181 16.3152 92.5809 16.4335C92.6375 16.3164 92.7303 16.2197 92.8461 16.1571C92.9649 16.0915 93.099 16.0572 93.2354 16.0576C93.3695 16.0549 93.5021 16.0843 93.6219 16.1433Z" fill="#060432"/>
<path d="M21.7791 23.9717C21.5095 23.9799 21.2412 23.9318 20.992 23.8307C20.7992 23.7509 20.6303 23.6244 20.5011 23.4631C20.3941 23.3257 20.3312 23.1602 20.3206 22.9876C20.3213 22.9585 20.3334 22.9308 20.3544 22.9102C20.3773 22.889 20.4076 22.8772 20.439 22.8771H20.7212C20.7559 22.8747 20.7903 22.8856 20.8171 22.9075C20.8383 22.9282 20.8538 22.9539 20.8622 22.9821C20.8862 23.0753 20.9327 23.1616 20.9976 23.2336C21.0739 23.3233 21.1705 23.3943 21.2797 23.441C21.4368 23.5014 21.6048 23.5296 21.7734 23.5239C22.0129 23.5421 22.2521 23.485 22.4562 23.3608C22.5262 23.3122 22.5829 23.2474 22.6213 23.1722C22.6597 23.097 22.6785 23.0136 22.6762 22.9296C22.6787 22.8747 22.6697 22.8199 22.6498 22.7686C22.6299 22.7173 22.5995 22.6705 22.5605 22.631C22.4577 22.5396 22.3367 22.47 22.2051 22.4265C22.0471 22.3657 21.8411 22.3021 21.5901 22.2302C21.3645 22.1698 21.1453 22.0883 20.9356 21.987C20.779 21.9132 20.6455 21.7996 20.5491 21.658C20.4589 21.5075 20.4148 21.3348 20.4221 21.1604C20.4198 20.979 20.475 20.8012 20.5801 20.6518C20.6942 20.4928 20.8516 20.3683 21.0343 20.2925C21.2596 20.1981 21.5031 20.1529 21.7481 20.1598C21.9464 20.1564 22.1439 20.1864 22.332 20.2482C22.4861 20.2983 22.6289 20.3772 22.7524 20.4804C22.8604 20.5677 22.9512 20.6735 23.0204 20.7928C23.074 20.8939 23.1048 21.0052 23.1107 21.119C23.1105 21.145 23.1015 21.1703 23.0853 21.1908C23.0741 21.2023 23.0604 21.2113 23.0453 21.217C23.0302 21.2228 23.014 21.2251 22.9978 21.224H22.7157C22.6881 21.2242 22.661 21.2175 22.6367 21.2047C22.6061 21.187 22.5838 21.1582 22.5746 21.1245C22.5608 21.0503 22.5317 20.9797 22.489 20.9169C22.4463 20.8542 22.391 20.8006 22.3264 20.7596C22.1588 20.6534 21.9615 20.6012 21.7622 20.6104C21.5652 20.6026 21.3699 20.6486 21.1979 20.743C21.1265 20.7856 21.0683 20.8464 21.0295 20.919C20.9907 20.9916 20.9729 21.0731 20.9779 21.1549C20.9738 21.264 21.0099 21.3709 21.0794 21.4562C21.1702 21.5485 21.2811 21.6194 21.4039 21.6635C21.5929 21.7377 21.7859 21.8013 21.9822 21.8543C22.225 21.9162 22.4619 21.9985 22.6903 22.1003C22.8526 22.1721 22.9934 22.2835 23.0994 22.4237C23.1928 22.572 23.239 22.7443 23.232 22.9185C23.2384 23.1228 23.1748 23.3232 23.0514 23.488C22.9234 23.652 22.7501 23.7767 22.5521 23.8473C22.3049 23.937 22.0425 23.9792 21.7791 23.9717Z" fill="#060432"/>
<path d="M23.9344 20.6546C23.9016 20.6544 23.8701 20.6415 23.847 20.6186C23.8347 20.6074 23.825 20.5937 23.8187 20.5784C23.8124 20.5631 23.8095 20.5466 23.8103 20.5302V20.2538C23.8096 20.2369 23.8125 20.2201 23.8189 20.2044C23.8252 20.1887 23.8348 20.1744 23.847 20.1625C23.858 20.1507 23.8716 20.1413 23.8867 20.1351C23.9018 20.1289 23.9181 20.126 23.9344 20.1266H24.2758C24.2931 20.1258 24.3103 20.1286 24.3264 20.1347C24.3425 20.1408 24.3571 20.1501 24.3694 20.1621C24.3816 20.1741 24.3911 20.1884 24.3973 20.2042C24.4036 20.22 24.4064 20.2368 24.4056 20.2538V20.5302C24.4064 20.5466 24.4035 20.5631 24.3972 20.5784C24.3909 20.5937 24.3812 20.6074 24.3689 20.6186C24.3435 20.6416 24.3103 20.6544 24.2758 20.6546H23.9344ZM23.9796 23.9192C23.963 23.9198 23.9465 23.9172 23.931 23.9115C23.9155 23.9058 23.9013 23.8971 23.8893 23.886C23.8666 23.862 23.8544 23.8302 23.8555 23.7975V21.2876C23.855 21.2718 23.8578 21.2561 23.8636 21.2414C23.8694 21.2267 23.8781 21.2133 23.8893 21.2019C23.9008 21.1898 23.9148 21.1804 23.9304 21.1742C23.946 21.168 23.9628 21.1652 23.9796 21.166H24.2391C24.2721 21.166 24.3036 21.1788 24.3269 21.2016C24.3502 21.2244 24.3633 21.2553 24.3633 21.2876V23.7975C24.3639 23.814 24.361 23.8304 24.3546 23.8456C24.3483 23.8609 24.3387 23.8746 24.3266 23.886C24.315 23.8969 24.3013 23.9055 24.2863 23.9112C24.2712 23.9169 24.2552 23.9196 24.2391 23.9192H23.9796Z" fill="#060432"/>
<path d="M25.3337 23.9192C25.3176 23.9196 25.3016 23.9169 25.2866 23.9112C25.2715 23.9055 25.2578 23.8969 25.2462 23.886C25.2341 23.8746 25.2245 23.8609 25.2182 23.8456C25.2119 23.8304 25.2089 23.814 25.2096 23.7975V21.2876C25.2096 21.2553 25.2226 21.2244 25.2459 21.2016C25.2692 21.1788 25.3008 21.166 25.3337 21.166H25.5791C25.5955 21.1654 25.6118 21.1683 25.6269 21.1745C25.642 21.1807 25.6555 21.1901 25.6666 21.2019C25.6899 21.2246 25.7031 21.2554 25.7033 21.2876V21.4728C25.7857 21.3636 25.8929 21.2746 26.0164 21.213C26.1569 21.143 26.3131 21.1088 26.4706 21.1134C26.6477 21.1 26.8249 21.1393 26.9789 21.2261C27.1329 21.3129 27.2566 21.4432 27.3339 21.6C27.418 21.4512 27.5431 21.3285 27.695 21.2461C27.8605 21.1562 28.0473 21.1104 28.2366 21.1134C28.4153 21.1108 28.5915 21.1547 28.7473 21.2406C28.9042 21.3303 29.0301 21.4642 29.1084 21.6248C29.2048 21.826 29.2502 22.0469 29.241 22.2689V23.7975C29.2422 23.8138 29.2399 23.8302 29.2341 23.8455C29.2283 23.8608 29.2192 23.8748 29.2074 23.8863C29.1956 23.8979 29.1814 23.9068 29.1658 23.9124C29.1501 23.9181 29.1334 23.9204 29.1168 23.9192H28.8629C28.8463 23.9204 28.8296 23.9181 28.814 23.9124C28.7983 23.9068 28.7841 23.8979 28.7723 23.8863C28.7605 23.8748 28.7514 23.8608 28.7457 23.8455C28.7399 23.8302 28.7375 23.8138 28.7388 23.7975V22.3159C28.7469 22.1556 28.717 21.9957 28.6513 21.8487C28.6037 21.7462 28.5222 21.6625 28.42 21.611C28.3203 21.5652 28.2114 21.5416 28.1012 21.5419C28.0032 21.5446 27.9069 21.5681 27.8191 21.611C27.715 21.6637 27.6302 21.7467 27.5765 21.8487C27.5073 21.9948 27.4754 22.1551 27.4834 22.3159V23.7975C27.484 23.814 27.4811 23.8304 27.4748 23.8456C27.4684 23.8609 27.4589 23.8746 27.4467 23.886C27.4353 23.8972 27.4216 23.9059 27.4066 23.9117C27.3915 23.9174 27.3754 23.9199 27.3593 23.9192H27.1054C27.0888 23.9198 27.0723 23.9172 27.0568 23.9115C27.0413 23.9058 27.0271 23.8971 27.0151 23.886C26.9924 23.862 26.9802 23.8302 26.9812 23.7975V22.3159C26.9892 22.1551 26.9573 21.9948 26.8881 21.8487C26.8359 21.7476 26.7532 21.6646 26.6512 21.611C26.555 21.5663 26.4501 21.5427 26.3437 21.5419C26.2457 21.5449 26.1495 21.5685 26.0615 21.611C25.9585 21.6641 25.8747 21.7472 25.8217 21.8487C25.752 21.9927 25.7191 22.1511 25.7258 22.3104V23.7975C25.7269 23.8302 25.7147 23.862 25.692 23.886C25.6799 23.8971 25.6658 23.9058 25.6503 23.9115C25.6348 23.9172 25.6182 23.9198 25.6017 23.9192H25.3337Z" fill="#060432"/>
<path d="M30.1438 24.9392C30.1271 24.9404 30.1104 24.9381 30.0948 24.9325C30.0792 24.9268 30.065 24.9179 30.0532 24.9063C30.0414 24.8948 30.0323 24.8808 30.0265 24.8655C30.0207 24.8502 30.0184 24.8338 30.0196 24.8175V21.2876C30.0192 21.2718 30.0219 21.2561 30.0278 21.2414C30.0336 21.2267 30.0423 21.2133 30.0535 21.2019C30.0651 21.19 30.0791 21.1806 30.0947 21.1744C30.1102 21.1682 30.127 21.1653 30.1438 21.166H30.392C30.4088 21.1653 30.4255 21.1682 30.4411 21.1744C30.4567 21.1806 30.4707 21.19 30.4823 21.2019C30.4935 21.2133 30.5022 21.2267 30.508 21.2414C30.5138 21.2561 30.5166 21.2718 30.5161 21.2876V21.5225C30.6078 21.4005 30.7264 21.3004 30.8631 21.2295C31.0299 21.1471 31.2153 21.1071 31.402 21.1134C31.5798 21.1078 31.7566 21.1428 31.9182 21.2157C32.0566 21.279 32.1775 21.3738 32.2709 21.4921C32.3637 21.6114 32.4335 21.7463 32.4768 21.8902C32.5264 22.0442 32.5539 22.2042 32.5586 22.3656C32.5586 22.4237 32.5586 22.4817 32.5586 22.5453C32.5586 22.6089 32.5586 22.6697 32.5586 22.725C32.5535 22.8864 32.5259 23.0463 32.4768 23.2005C32.4341 23.3437 32.3642 23.4778 32.2709 23.5957C32.1765 23.7131 32.0558 23.8077 31.9182 23.8722C31.7566 23.9451 31.5798 23.9801 31.402 23.9744C31.2347 23.9808 31.0683 23.9484 30.9163 23.8797C30.7643 23.811 30.631 23.708 30.5274 23.5792V24.8065C30.5279 24.8386 30.5169 24.8699 30.4964 24.8949C30.485 24.9062 30.4713 24.9149 30.4563 24.9206C30.4412 24.9263 30.4251 24.9289 30.4089 24.9281L30.1438 24.9392ZM31.2891 23.557C31.4452 23.5665 31.6001 23.5247 31.7292 23.4382C31.8361 23.3587 31.9166 23.25 31.9606 23.1258C32.0076 22.9922 32.0343 22.8525 32.0396 22.7112C32.0452 22.609 32.0452 22.5065 32.0396 22.4043C32.0342 22.2622 32.0076 22.1215 31.9606 21.9869C31.9159 21.8631 31.8355 21.7546 31.7292 21.6746C31.5995 21.5894 31.4451 21.5477 31.2891 21.5557C31.1365 21.5495 30.986 21.5922 30.8603 21.6773C30.7522 21.7569 30.6683 21.864 30.6177 21.9869C30.5661 22.1092 30.5356 22.2391 30.5274 22.3712C30.5274 22.4292 30.5274 22.4956 30.5274 22.573C30.5274 22.6504 30.5274 22.7195 30.5274 22.7803C30.5319 22.9067 30.5626 23.0308 30.6177 23.1452C30.6719 23.2646 30.7588 23.367 30.8688 23.4409C30.9928 23.5222 31.14 23.5629 31.2891 23.557Z" fill="#060432"/>
<path d="M33.3655 23.9192C33.349 23.9198 33.3325 23.9172 33.317 23.9115C33.3015 23.9058 33.2873 23.8971 33.2752 23.886C33.2525 23.862 33.2404 23.8302 33.2414 23.7975V20.2814C33.2409 20.2656 33.2437 20.2499 33.2495 20.2352C33.2553 20.2205 33.2641 20.2071 33.2752 20.1957C33.287 20.1841 33.3011 20.1749 33.3166 20.1687C33.3321 20.1625 33.3488 20.1595 33.3655 20.1598H33.6194C33.6358 20.1594 33.6521 20.1623 33.6674 20.1682C33.6826 20.1742 33.6965 20.1832 33.7081 20.1945C33.7197 20.2059 33.7288 20.2195 33.7349 20.2344C33.741 20.2493 33.7439 20.2653 33.7436 20.2814V23.7975C33.7446 23.8302 33.7324 23.862 33.7097 23.886C33.6979 23.8974 33.6837 23.9063 33.6682 23.912C33.6526 23.9177 33.636 23.9201 33.6194 23.9192H33.3655Z" fill="#060432"/>
<path d="M35.6703 23.9717C35.5061 23.9797 35.3421 23.9541 35.1886 23.8965C35.0351 23.839 34.8955 23.7506 34.7788 23.6372C34.5496 23.3872 34.4212 23.0638 34.4177 22.7278C34.4177 22.6835 34.4177 22.6227 34.4177 22.5508C34.4177 22.479 34.4177 22.4209 34.4177 22.3739C34.426 22.1444 34.4867 21.9195 34.5955 21.716C34.6931 21.5335 34.8418 21.3819 35.0243 21.2793C35.2202 21.1736 35.441 21.1202 35.6647 21.1245C35.9065 21.1173 36.1457 21.1757 36.3558 21.2931C36.5433 21.409 36.6908 21.5776 36.779 21.7769C36.8819 22.0066 36.932 22.2558 36.9257 22.5066V22.5978C36.9269 22.6144 36.9243 22.6309 36.9179 22.6463C36.9116 22.6616 36.9017 22.6753 36.889 22.6863C36.8774 22.6972 36.8637 22.7058 36.8487 22.7115C36.8337 22.7172 36.8177 22.7199 36.8016 22.7195H34.9312V22.7665C34.9379 22.9056 34.9704 23.0423 35.0271 23.17C35.0832 23.2921 35.1707 23.3978 35.281 23.4769C35.3926 23.5554 35.5273 23.5962 35.6647 23.593C35.7758 23.5966 35.8864 23.5768 35.9891 23.5349C36.0659 23.5024 36.1373 23.4586 36.2007 23.405C36.2407 23.3714 36.2767 23.3333 36.3079 23.2917C36.3279 23.2612 36.3537 23.2349 36.3841 23.2143C36.412 23.2041 36.4417 23.1994 36.4715 23.2004H36.7367C36.7665 23.1995 36.7956 23.2093 36.8185 23.2281C36.8306 23.238 36.8399 23.2509 36.8453 23.2655C36.8508 23.28 36.8522 23.2957 36.8495 23.311C36.8383 23.382 36.8082 23.4487 36.7621 23.5045C36.6992 23.5911 36.6219 23.6668 36.5336 23.7284C36.422 23.8086 36.2982 23.8712 36.1668 23.9136C36.0055 23.9586 35.8379 23.9781 35.6703 23.9717ZM34.9312 22.3408H36.4123V22.3269C36.4147 22.1802 36.3838 22.0349 36.322 21.9013C36.2658 21.7778 36.1731 21.6736 36.056 21.6022C35.9388 21.5308 35.8025 21.4953 35.6647 21.5004C35.5283 21.4957 35.3937 21.5314 35.2784 21.6029C35.1631 21.6744 35.0726 21.7784 35.0186 21.9013C34.9578 22.0351 34.9279 22.1805 34.9312 22.3269V22.3408Z" fill="#060432"/>
<path d="M37.6592 23.9192C37.6431 23.9199 37.627 23.9174 37.6119 23.9117C37.5969 23.9059 37.5832 23.8972 37.5718 23.886C37.5596 23.8746 37.5501 23.8609 37.5437 23.8456C37.5374 23.8304 37.5345 23.814 37.5351 23.7975V23.4161C37.5345 23.4 37.5375 23.3841 37.5438 23.3693C37.5502 23.3545 37.5597 23.3412 37.5718 23.3304C37.5827 23.3184 37.5962 23.3089 37.6114 23.3027C37.6265 23.2965 37.6429 23.2937 37.6592 23.2944H38.0486C38.0658 23.2938 38.0829 23.2966 38.099 23.3028C38.115 23.309 38.1295 23.3184 38.1417 23.3304C38.1538 23.3412 38.1633 23.3545 38.1696 23.3693C38.176 23.3841 38.1789 23.4 38.1783 23.4161V23.7975C38.179 23.814 38.176 23.8304 38.1697 23.8456C38.1634 23.8609 38.1538 23.8746 38.1417 23.886C38.116 23.9082 38.0828 23.92 38.0486 23.9192H37.6592Z" fill="#060432"/>
<path d="M40.0741 23.9192C40.0604 23.9192 40.0469 23.9165 40.0343 23.9113C40.0217 23.9061 40.0103 23.8984 40.0008 23.8888C39.9902 23.8793 39.9817 23.8677 39.9759 23.8549C39.9701 23.8421 39.967 23.8282 39.9669 23.8141C39.9658 23.7948 39.9658 23.7754 39.9669 23.7561L41.307 20.3311C41.3192 20.2982 41.3395 20.2688 41.3662 20.2455C41.3987 20.222 41.4389 20.2112 41.479 20.2151H41.8458C41.8868 20.2113 41.9279 20.2221 41.9615 20.2455C41.9881 20.2688 42.0084 20.2982 42.0207 20.3311L43.3551 23.7561C43.3572 23.7754 43.3572 23.7948 43.3551 23.8141C43.355 23.8282 43.3519 23.8421 43.3461 23.8549C43.3403 23.8677 43.3318 23.8793 43.3212 23.8888C43.3113 23.8986 43.2994 23.9064 43.2863 23.9116C43.2732 23.9169 43.2592 23.9194 43.2451 23.9192H42.963C42.9457 23.9206 42.9283 23.9187 42.9119 23.9135C42.8954 23.9082 42.8801 23.8998 42.867 23.8888C42.8503 23.872 42.8369 23.8523 42.8275 23.8307L42.5285 23.0788H40.7935L40.486 23.8335C40.4789 23.8555 40.4663 23.8755 40.4493 23.8915C40.4213 23.9131 40.3862 23.9239 40.3506 23.9219L40.0741 23.9192ZM40.9402 22.6227H42.3987L41.6681 20.743L40.9402 22.6227Z" fill="#060432"/>
<path d="M44.8728 23.9717C44.696 23.9764 44.5203 23.9414 44.3594 23.8694C44.2214 23.8055 44.1007 23.7108 44.0067 23.593C43.9127 23.4714 43.8428 23.3335 43.8008 23.1866C43.7553 23.0299 43.7288 22.8685 43.7218 22.7057C43.7218 22.6476 43.7218 22.5951 43.7218 22.5453C43.7218 22.4956 43.7218 22.443 43.7218 22.3878C43.729 22.2259 43.7556 22.0654 43.8008 21.9095C43.8434 21.7629 43.9132 21.6251 44.0067 21.5032C44.1002 21.3849 44.2211 21.2902 44.3594 21.2268C44.5207 21.156 44.6961 21.1211 44.8728 21.1245C45.0562 21.1186 45.2382 21.1565 45.4032 21.2351C45.5364 21.3025 45.6537 21.3967 45.7474 21.5115V20.2925C45.7475 20.2603 45.7607 20.2294 45.784 20.2068C45.7958 20.1951 45.8099 20.1859 45.8254 20.1798C45.841 20.1736 45.8576 20.1705 45.8743 20.1708H46.131C46.1478 20.1705 46.1644 20.1736 46.1799 20.1798C46.1954 20.1859 46.2095 20.1951 46.2213 20.2068C46.2446 20.2294 46.2578 20.2603 46.258 20.2925V23.8086C46.258 23.8416 46.2448 23.8734 46.2213 23.8971C46.2093 23.9082 46.1951 23.9169 46.1796 23.9226C46.1641 23.9283 46.1476 23.9309 46.131 23.9302H45.8884C45.8718 23.9314 45.8552 23.929 45.8396 23.9233C45.824 23.9176 45.8099 23.9086 45.7982 23.8971C45.7754 23.8731 45.7633 23.8413 45.7643 23.8086V23.5875C45.6689 23.7028 45.5497 23.797 45.4145 23.8639C45.2458 23.9433 45.0597 23.9803 44.8728 23.9717ZM44.9857 23.5432C45.1403 23.5515 45.2933 23.5087 45.4201 23.4216C45.5273 23.341 45.611 23.2343 45.6627 23.112C45.7158 22.9904 45.7446 22.86 45.7474 22.7278C45.7474 22.6725 45.7474 22.6034 45.7474 22.526C45.7474 22.4486 45.7474 22.3767 45.7474 22.3214C45.7446 22.1951 45.7148 22.0708 45.6599 21.9565C45.605 21.8376 45.5195 21.7347 45.4117 21.658C45.2859 21.5759 45.1366 21.5352 44.9857 21.5419C44.8307 21.535 44.6776 21.5767 44.5484 21.6608C44.4413 21.74 44.3607 21.8488 44.3171 21.9731C44.2691 22.1076 44.2415 22.2482 44.2352 22.3905C44.2352 22.4937 44.2352 22.596 44.2352 22.6974C44.2415 22.8388 44.2691 22.9785 44.3171 23.112C44.3599 23.2368 44.4406 23.3457 44.5484 23.4244C44.6752 23.5146 44.829 23.5613 44.9857 23.557V23.5432Z" fill="#060432"/>
<path d="M48.041 23.9192C47.9956 23.9231 47.9503 23.9103 47.914 23.8832C47.882 23.8572 47.8568 23.824 47.8407 23.7865L46.8392 21.3456C46.8367 21.3282 46.8367 21.3105 46.8392 21.2931C46.8379 21.2783 46.84 21.2635 46.8454 21.2496C46.8508 21.2357 46.8593 21.2232 46.8702 21.213C46.8806 21.202 46.8933 21.1934 46.9074 21.1877C46.9216 21.182 46.9367 21.1793 46.952 21.1798H47.2116C47.2281 21.1786 47.2448 21.181 47.2604 21.1867C47.276 21.1924 47.2901 21.2014 47.3018 21.213C47.3212 21.2287 47.3366 21.2486 47.347 21.271L48.1679 23.358L48.9889 21.271C48.9969 21.2487 49.0104 21.2288 49.0284 21.213C49.0401 21.2014 49.0542 21.1924 49.0698 21.1867C49.0854 21.181 49.102 21.1786 49.1186 21.1798H49.3838C49.3982 21.1799 49.4123 21.1829 49.4254 21.1886C49.4385 21.1943 49.4503 21.2026 49.46 21.213C49.4721 21.2225 49.4818 21.2348 49.4882 21.2487C49.4945 21.2627 49.4974 21.2779 49.4967 21.2931C49.5004 21.3104 49.5004 21.3283 49.4967 21.3456L48.4923 23.8003C48.4792 23.838 48.4558 23.8715 48.4246 23.8971C48.386 23.9236 48.3391 23.9363 48.292 23.933L48.041 23.9192Z" fill="#060432"/>
<path d="M50.7296 23.9717C50.5598 23.975 50.3916 23.939 50.2387 23.8666C50.0992 23.804 49.9772 23.7091 49.8832 23.5902C49.7939 23.4719 49.7464 23.3283 49.7478 23.1811C49.7446 23.0669 49.7705 22.9538 49.8232 22.8519C49.8759 22.7501 49.9538 22.6627 50.0497 22.5978C50.2866 22.4451 50.5575 22.3503 50.8396 22.3214L51.6436 22.2109V22.0561C51.6478 21.9836 51.6366 21.9112 51.6109 21.8431C51.5852 21.7751 51.5454 21.7131 51.4941 21.6608C51.3589 21.5525 51.1855 21.5008 51.0117 21.517C50.8754 21.5111 50.7403 21.5437 50.6224 21.611C50.5273 21.668 50.4532 21.7532 50.4108 21.8543C50.4043 21.8783 50.3896 21.8995 50.369 21.9141C50.3484 21.9287 50.3233 21.9359 50.298 21.9344H50.0553C50.0387 21.9356 50.0221 21.9332 50.0065 21.9275C49.9909 21.9218 49.9768 21.9128 49.9651 21.9013C49.9455 21.878 49.9354 21.8484 49.9369 21.8183C49.9412 21.749 49.9625 21.6817 49.9989 21.6221C50.0482 21.5357 50.1132 21.4588 50.1907 21.3954C50.2889 21.3131 50.4018 21.2494 50.5236 21.2074C50.6818 21.1516 50.8493 21.1253 51.0173 21.13C51.2025 21.1252 51.3869 21.1533 51.5618 21.2129C51.6945 21.2574 51.8145 21.3323 51.9116 21.4313C51.995 21.5213 52.0575 21.6279 52.095 21.7437C52.1321 21.8591 52.1511 21.9793 52.1514 22.1003V23.8141C52.1527 23.8304 52.1504 23.8468 52.1446 23.8621C52.1388 23.8774 52.1297 23.8913 52.1179 23.9029C52.1061 23.9144 52.0919 23.9234 52.0763 23.929C52.0606 23.9347 52.0439 23.937 52.0273 23.9357H51.779C51.7621 23.9366 51.7451 23.9341 51.7291 23.9284C51.7131 23.9227 51.6984 23.9139 51.6859 23.9026C51.6654 23.8775 51.6545 23.8462 51.6549 23.8141V23.5875C51.6008 23.6581 51.5372 23.7214 51.4659 23.7754C51.3768 23.8424 51.2766 23.8939 51.1697 23.9275C51.0265 23.9661 50.8778 23.981 50.7296 23.9717ZM50.8453 23.5764C50.9856 23.5783 51.1242 23.546 51.2487 23.4824C51.3694 23.4208 51.4679 23.3243 51.5308 23.206C51.6058 23.0527 51.6416 22.8838 51.6352 22.714V22.5647L51.0089 22.6559C50.8053 22.6731 50.608 22.7335 50.4305 22.8328C50.3727 22.8639 50.3242 22.9094 50.29 22.9648C50.2559 23.0201 50.2372 23.0833 50.2359 23.1479C50.2319 23.2384 50.2644 23.3267 50.3262 23.394C50.3881 23.46 50.4656 23.5103 50.5519 23.5405C50.6469 23.5684 50.7461 23.5806 50.8453 23.5764Z" fill="#060432"/>
<path d="M53.0542 23.9192C53.0375 23.9204 53.0208 23.9181 53.0052 23.9124C52.9896 23.9068 52.9754 23.8979 52.9636 23.8863C52.9518 23.8748 52.9427 23.8608 52.9369 23.8455C52.9311 23.8302 52.9288 23.8138 52.93 23.7975V21.2876C52.9296 21.2718 52.9323 21.2561 52.9382 21.2414C52.944 21.2267 52.9527 21.2133 52.9639 21.2019C52.9755 21.19 52.9895 21.1806 53.0051 21.1744C53.0206 21.1682 53.0374 21.1653 53.0542 21.166H53.3081C53.3248 21.1653 53.3416 21.1682 53.3571 21.1744C53.3727 21.1806 53.3867 21.19 53.3983 21.2019C53.4095 21.2133 53.4182 21.2267 53.4241 21.2414C53.4299 21.2561 53.4326 21.2718 53.4322 21.2876V21.5226C53.5271 21.4007 53.6473 21.2999 53.7848 21.2268C53.9561 21.1458 54.1449 21.1069 54.3349 21.1134C54.5451 21.1069 54.7526 21.1597 54.933 21.2655C55.0964 21.3657 55.2259 21.5109 55.3054 21.6829C55.3934 21.8787 55.4367 22.0909 55.4324 22.3048V23.7975C55.433 23.814 55.4301 23.8304 55.4237 23.8456C55.4174 23.8609 55.4079 23.8746 55.3957 23.886C55.3841 23.8969 55.3704 23.9055 55.3554 23.9112C55.3404 23.9169 55.3243 23.9196 55.3082 23.9192H55.0261C55.0095 23.9204 54.9928 23.9181 54.9772 23.9124C54.9615 23.9068 54.9473 23.8979 54.9355 23.8863C54.9237 23.8748 54.9146 23.8608 54.9089 23.8455C54.9031 23.8302 54.9007 23.8138 54.902 23.7975V22.3325C54.9148 22.1236 54.8496 21.9173 54.7186 21.752C54.6501 21.6795 54.5659 21.623 54.4721 21.5867C54.3784 21.5503 54.2775 21.535 54.177 21.5419C54.0775 21.5372 53.9781 21.5535 53.8856 21.5897C53.7931 21.626 53.7097 21.6813 53.641 21.752C53.4976 21.9116 53.4246 22.1203 53.4378 22.3325V23.7975C53.4385 23.814 53.4355 23.8304 53.4292 23.8456C53.4229 23.8609 53.4133 23.8746 53.4012 23.886C53.3896 23.8969 53.3758 23.9055 53.3608 23.9112C53.3458 23.9169 53.3298 23.9196 53.3137 23.9192H53.0542Z" fill="#060432"/>
<path d="M57.3394 23.9717C57.1097 23.9781 56.8819 23.9287 56.6764 23.8279C56.4937 23.7332 56.3443 23.5868 56.2476 23.4078C56.1409 23.2061 56.0849 22.9825 56.084 22.7554C56.084 22.7029 56.084 22.631 56.084 22.5426C56.084 22.4541 56.084 22.385 56.084 22.3325C56.0853 22.1045 56.1413 21.8801 56.2476 21.6773C56.3444 21.4991 56.4939 21.3536 56.6764 21.2599C56.8817 21.1582 57.1094 21.1079 57.3394 21.1134C57.522 21.1087 57.7038 21.1378 57.8754 21.1991C58.0126 21.2468 58.139 21.32 58.2478 21.4147C58.3373 21.4927 58.411 21.5865 58.465 21.6912C58.509 21.7776 58.5358 21.8714 58.544 21.9676C58.5461 21.9835 58.544 21.9997 58.5381 22.0146C58.5322 22.0296 58.5226 22.0429 58.5101 22.0533C58.4846 22.0734 58.4527 22.0841 58.4199 22.0837H58.1603C58.1313 22.0851 58.1027 22.0773 58.0785 22.0616C58.0557 22.0373 58.0376 22.0092 58.0249 21.9787C57.9807 21.8314 57.8873 21.7029 57.7597 21.6138C57.6354 21.5384 57.4911 21.5009 57.345 21.506C57.2482 21.5023 57.1515 21.5178 57.0609 21.5515C56.9702 21.5852 56.8875 21.6365 56.8175 21.7022C56.6659 21.8778 56.5873 22.1028 56.5974 22.3325C56.5974 22.4596 56.5974 22.584 56.5974 22.7029C56.5852 22.9337 56.664 23.1604 56.8175 23.3359C56.8876 23.4013 56.9705 23.4521 57.0611 23.4853C57.1518 23.5186 57.2483 23.5336 57.345 23.5294C57.4907 23.534 57.6346 23.4975 57.7597 23.4244C57.886 23.3339 57.979 23.2059 58.0249 23.0595C58.0373 23.0279 58.0555 22.9989 58.0785 22.9738C58.1013 22.9548 58.1305 22.9449 58.1603 22.9461H58.4199C58.4536 22.9462 58.486 22.9591 58.5101 22.9821C58.5224 22.9926 58.5319 23.006 58.5378 23.0209C58.5437 23.0358 58.5458 23.0519 58.544 23.0678C58.54 23.1462 58.5239 23.2236 58.496 23.2972C58.4613 23.3814 58.4147 23.4605 58.3578 23.5322C58.2906 23.6148 58.2107 23.6866 58.1208 23.745C58.0184 23.8106 57.9061 23.8601 57.7879 23.8915C57.6433 23.9398 57.4921 23.9668 57.3394 23.9717Z" fill="#060432"/>
<path d="M60.3101 23.9717C60.1459 23.9801 59.9817 23.9546 59.8282 23.897C59.6746 23.8394 59.5351 23.7509 59.4186 23.6372C59.1868 23.3843 59.0583 23.0566 59.0575 22.7167C59.0575 22.6725 59.0575 22.6117 59.0575 22.5398C59.0575 22.4679 59.0575 22.4099 59.0575 22.3629C59.0657 22.1333 59.1265 21.9085 59.2352 21.705C59.3329 21.5224 59.4816 21.3709 59.664 21.2682C59.8598 21.1621 60.0808 21.1087 60.3044 21.1134C60.5454 21.1059 60.7838 21.1643 60.9928 21.2821C61.1811 21.3978 61.3295 21.5664 61.4188 21.7658C61.5204 21.996 61.5704 22.2448 61.5655 22.4956V22.5868C61.5659 22.6032 61.5629 22.6196 61.5566 22.6348C61.5503 22.65 61.5408 22.6638 61.5288 22.6752C61.5168 22.6864 61.5026 22.6951 61.4871 22.7008C61.4716 22.7065 61.4551 22.7091 61.4385 22.7084H59.5709V22.7554C59.5767 22.8947 59.6092 23.0316 59.6669 23.159C59.722 23.2809 59.8085 23.3866 59.9179 23.4658C60.0308 23.544 60.1662 23.5847 60.3044 23.5819C60.4156 23.5853 60.5261 23.5655 60.6289 23.5239C60.7057 23.4913 60.777 23.4475 60.8405 23.394C60.8805 23.3603 60.9165 23.3223 60.9477 23.2806C60.9676 23.2502 60.9935 23.2239 61.0238 23.2032C61.0517 23.1927 61.0815 23.188 61.1113 23.1894H61.3877C61.4185 23.188 61.4486 23.1979 61.4724 23.217C61.4841 23.2273 61.493 23.2403 61.4985 23.2547C61.5039 23.2692 61.5056 23.2847 61.5034 23.3C61.4909 23.3705 61.4609 23.437 61.416 23.4935C61.3531 23.5801 61.2758 23.6557 61.1875 23.7174C61.0749 23.7976 60.9502 23.8601 60.8179 23.9026C60.6536 23.9527 60.4821 23.9761 60.3101 23.9717ZM59.5709 22.3408H61.052V22.3269C61.0544 22.1803 61.0236 22.0349 60.9618 21.9013C60.9055 21.7778 60.8129 21.6736 60.6958 21.6022C60.5786 21.5308 60.4423 21.4953 60.3044 21.5004C60.1638 21.4964 60.0252 21.5339 59.9067 21.6082C59.7979 21.6823 59.7112 21.7834 59.6556 21.9013C59.597 22.0357 59.5681 22.1808 59.5709 22.3269V22.3408Z" fill="#060432"/>
<path d="M63.2384 23.9717C63.0615 23.9764 62.8859 23.9414 62.725 23.8694C62.587 23.8055 62.4663 23.7108 62.3723 23.593C62.2783 23.4714 62.2084 23.3335 62.1664 23.1866C62.1209 23.0299 62.0944 22.8685 62.0874 22.7057C62.0874 22.6476 62.0874 22.5951 62.0874 22.5453C62.0874 22.4956 62.0874 22.443 62.0874 22.3878C62.0946 22.2259 62.1212 22.0654 62.1664 21.9095C62.209 21.7629 62.2788 21.6251 62.3723 21.5032C62.4658 21.3849 62.5867 21.2902 62.725 21.2268C62.8863 21.156 63.0617 21.1211 63.2384 21.1245C63.4218 21.1186 63.6038 21.1565 63.7688 21.2351C63.9024 21.3032 64.0204 21.3973 64.1158 21.5115V20.2925C64.1154 20.2767 64.1181 20.261 64.1239 20.2463C64.1297 20.2316 64.1385 20.2181 64.1496 20.2068C64.1614 20.1951 64.1755 20.1859 64.191 20.1798C64.2065 20.1736 64.2232 20.1705 64.2399 20.1708H64.491C64.5239 20.1708 64.5555 20.1836 64.5788 20.2065C64.6021 20.2293 64.6151 20.2602 64.6151 20.2925V23.8086C64.6151 23.8416 64.6019 23.8734 64.5785 23.8971C64.5669 23.908 64.5531 23.9166 64.5381 23.9223C64.5231 23.9279 64.5071 23.9307 64.491 23.9302H64.2456C64.229 23.9314 64.2123 23.929 64.1967 23.9233C64.1812 23.9176 64.167 23.9086 64.1553 23.8971C64.1326 23.8731 64.1204 23.8413 64.1214 23.8086V23.5875C64.0261 23.7028 63.9068 23.797 63.7716 23.8639C63.6055 23.9419 63.4225 23.9789 63.2384 23.9717ZM63.3625 23.557C63.5163 23.5649 63.6682 23.5221 63.7942 23.4354C63.9014 23.3549 63.985 23.2481 64.0368 23.1258C64.0892 23.0039 64.1188 22.8738 64.1243 22.7416C64.1243 22.6863 64.1243 22.6172 64.1243 22.5398C64.1243 22.4624 64.1243 22.3905 64.1243 22.3352C64.1191 22.209 64.0884 22.085 64.034 21.9704C63.9791 21.8514 63.8935 21.7485 63.7857 21.6718C63.6608 21.5901 63.5126 21.5495 63.3625 21.5557C63.2067 21.5485 63.0525 21.5901 62.9225 21.6746C62.8162 21.7546 62.7358 21.8631 62.6911 21.9869C62.6431 22.1214 62.6156 22.262 62.6093 22.4043C62.6093 22.5075 62.6093 22.6098 62.6093 22.7112C62.6156 22.8526 62.6431 22.9923 62.6911 23.1258C62.7351 23.25 62.8156 23.3587 62.9225 23.4382C63.0519 23.5239 63.2065 23.5657 63.3625 23.557Z" fill="#060432"/>
<path d="M65.5151 23.9192C65.4985 23.9198 65.482 23.9172 65.4665 23.9115C65.451 23.9058 65.4368 23.8972 65.4248 23.886C65.4021 23.862 65.3899 23.8302 65.3909 23.7975V23.4161C65.3905 23.4003 65.3933 23.3846 65.3991 23.3699C65.4049 23.3552 65.4136 23.3418 65.4248 23.3304C65.4363 23.3183 65.4503 23.3089 65.4659 23.3026C65.4815 23.2964 65.4982 23.2936 65.5151 23.2944H65.9016C65.9183 23.2942 65.9349 23.2972 65.9504 23.3034C65.966 23.3095 65.98 23.3187 65.9918 23.3304C66.0039 23.3412 66.0135 23.3545 66.0198 23.3693C66.0261 23.3841 66.0291 23.4 66.0285 23.4161V23.7975C66.0291 23.814 66.0262 23.8304 66.0199 23.8456C66.0135 23.8609 66.004 23.8746 65.9918 23.886C65.9671 23.9078 65.9348 23.9196 65.9016 23.9192H65.5151Z" fill="#060432"/>
<path d="M68.308 23.9192C68.291 23.92 68.274 23.9176 68.258 23.9119C68.242 23.9062 68.2273 23.8974 68.2149 23.886C68.1943 23.861 68.1834 23.8297 68.1838 23.7975V20.3395C68.1824 20.3063 68.1935 20.2739 68.2149 20.2482C68.2273 20.2369 68.242 20.2281 68.258 20.2224C68.274 20.2167 68.291 20.2142 68.308 20.2151H69.679C69.9166 20.2094 70.1529 20.2518 70.373 20.3395C70.5609 20.4175 70.7203 20.5496 70.8301 20.7182C70.9451 20.9075 71.0019 21.1254 70.9937 21.3456C71.0027 21.5651 70.9458 21.7823 70.8301 21.9704C70.7209 22.1389 70.5613 22.2702 70.373 22.3463C70.1534 22.436 69.9169 22.4793 69.679 22.4735H68.7227V23.7975C68.7237 23.8302 68.7115 23.862 68.6888 23.886C68.6758 23.8974 68.6607 23.9063 68.6442 23.912C68.6278 23.9177 68.6103 23.9201 68.5929 23.9192H68.308ZM68.717 22.0312H69.6536C69.8684 22.0464 70.0814 21.9834 70.2517 21.8543C70.3215 21.7894 70.3757 21.71 70.4103 21.6221C70.445 21.5341 70.4592 21.4397 70.452 21.3456C70.458 21.2526 70.4437 21.1594 70.4102 21.0722C70.3766 20.985 70.3245 20.9058 70.2574 20.8398C70.0877 20.7049 69.8714 20.6395 69.6536 20.6573H68.7227L68.717 22.0312Z" fill="#060432"/>
<path d="M72.3112 23.9717C72.1414 23.9749 71.9732 23.939 71.8203 23.8666C71.6795 23.8047 71.5565 23.7098 71.462 23.5902C71.3727 23.4719 71.3252 23.3283 71.3266 23.1811C71.3239 23.0667 71.3504 22.9535 71.4036 22.8517C71.4568 22.7498 71.535 22.6626 71.6313 22.5978C71.8669 22.4446 72.137 22.3497 72.4184 22.3214L73.2252 22.2108V22.056C73.2293 21.9836 73.2182 21.9112 73.1925 21.8431C73.1667 21.7751 73.127 21.7131 73.0757 21.6608C72.9405 21.5525 72.7671 21.5008 72.5933 21.517C72.4569 21.5105 72.3216 21.5431 72.204 21.611C72.1089 21.668 72.0347 21.7532 71.9924 21.8543C71.9855 21.8781 71.9706 21.8989 71.9501 21.9134C71.9296 21.928 71.9048 21.9354 71.8795 21.9344H71.6369C71.6196 21.9356 71.6023 21.933 71.5862 21.9268C71.5701 21.9206 71.5556 21.9109 71.5438 21.8985C71.5232 21.8756 71.5122 21.846 71.5128 21.8156C71.5184 21.7461 71.5407 21.6788 71.5777 21.6193C71.6261 21.5323 71.6912 21.4553 71.7695 21.3926C71.8666 21.3104 71.9786 21.2466 72.0996 21.2047C72.2587 21.1488 72.4271 21.1225 72.5961 21.1273C72.7812 21.1224 72.9657 21.1505 73.1406 21.2102C73.2665 21.25 73.3808 21.319 73.4736 21.4114C73.5665 21.5039 73.6351 21.6169 73.6738 21.7409C73.7108 21.8563 73.7298 21.9765 73.7302 22.0975V23.8114C73.7308 23.8278 73.7279 23.8442 73.7216 23.8595C73.7153 23.8747 73.7057 23.8885 73.6935 23.8998C73.6819 23.9107 73.6682 23.9193 73.6532 23.925C73.6382 23.9307 73.6222 23.9334 73.6061 23.933H73.3578C73.3411 23.9347 73.3242 23.9328 73.3083 23.9273C73.2924 23.9218 73.278 23.9129 73.2661 23.9012C73.2542 23.8896 73.2451 23.8754 73.2395 23.8599C73.2339 23.8443 73.2319 23.8278 73.2337 23.8114V23.5847C73.1796 23.6554 73.116 23.7186 73.0447 23.7727C72.9542 23.8391 72.8532 23.8904 72.7456 23.9247C72.6045 23.9639 72.4577 23.9798 72.3112 23.9717ZM72.424 23.5764C72.5653 23.5788 72.705 23.5465 72.8303 23.4824C72.9506 23.4203 73.0489 23.3239 73.1124 23.206C73.1885 23.053 73.2253 22.8841 73.2196 22.7139V22.5647L72.5933 22.6559C72.3897 22.6731 72.1924 22.7335 72.015 22.8328C71.9571 22.8639 71.9086 22.9094 71.8744 22.9648C71.8403 23.0201 71.8216 23.0833 71.8203 23.1479C71.8167 23.2378 71.848 23.3257 71.9078 23.394C71.9705 23.4604 72.049 23.5107 72.1363 23.5405C72.2295 23.5681 72.3267 23.5802 72.424 23.5764Z" fill="#060432"/>
<path d="M74.9433 24.9392C74.9149 24.9388 74.8877 24.9279 74.8671 24.9088C74.8569 24.8991 74.8489 24.8875 74.8435 24.8747C74.8382 24.8618 74.8357 24.848 74.8361 24.8341C74.8347 24.8203 74.8347 24.8065 74.8361 24.7927C74.8421 24.7737 74.8497 24.7552 74.8587 24.7374L75.2762 23.7699L74.2437 21.3816C74.2286 21.3541 74.219 21.3241 74.2154 21.2931C74.2147 21.2781 74.2174 21.2632 74.2233 21.2493C74.2291 21.2355 74.238 21.2231 74.2493 21.2129C74.2592 21.2021 74.2714 21.1935 74.285 21.1878C74.2987 21.182 74.3134 21.1793 74.3283 21.1798H74.5935C74.6259 21.1783 74.6579 21.1881 74.6837 21.2074C74.7035 21.2239 74.7174 21.2462 74.7232 21.271L75.5442 23.206L76.3905 21.271C76.4005 21.2468 76.4159 21.225 76.4357 21.2074C76.4615 21.1881 76.4935 21.1783 76.5259 21.1798H76.7798C76.7951 21.1793 76.8103 21.182 76.8244 21.1877C76.8385 21.1934 76.8512 21.202 76.8617 21.2129C76.8717 21.2227 76.8797 21.2343 76.885 21.2471C76.8903 21.26 76.8929 21.2737 76.8927 21.2876C76.8886 21.3199 76.8801 21.3515 76.8673 21.3816L75.3326 24.8507C75.3209 24.8747 75.3046 24.8963 75.2847 24.9143C75.2595 24.9327 75.2285 24.9415 75.1972 24.9392H74.9433Z" fill="#060432"/>
<path d="M77.5584 23.9192C77.5418 23.9204 77.5251 23.9181 77.5095 23.9124C77.4938 23.9068 77.4796 23.8979 77.4678 23.8863C77.456 23.8748 77.4469 23.8608 77.4412 23.8455C77.4354 23.8302 77.433 23.8138 77.4343 23.7975V21.2876C77.4339 21.2718 77.4366 21.2561 77.4424 21.2414C77.4482 21.2267 77.457 21.2133 77.4681 21.2019C77.4797 21.19 77.4938 21.1806 77.5093 21.1744C77.5249 21.1682 77.5416 21.1653 77.5584 21.166H77.801C77.8178 21.1653 77.8346 21.1682 77.8501 21.1744C77.8657 21.1806 77.8797 21.19 77.8913 21.2019C77.9025 21.2133 77.9112 21.2267 77.917 21.2414C77.9228 21.2561 77.9256 21.2718 77.9252 21.2876V21.4728C78.0076 21.3636 78.1148 21.2746 78.2383 21.213C78.3789 21.1433 78.535 21.1091 78.6925 21.1134C78.8697 21.1 79.0468 21.1393 79.2008 21.2261C79.3548 21.3129 79.4785 21.4432 79.5558 21.6C79.6418 21.4517 79.7677 21.3293 79.9197 21.2461C80.0843 21.1562 80.2701 21.1104 80.4585 21.1134C80.6373 21.1106 80.8135 21.1544 80.9692 21.2406C81.1266 21.3294 81.2533 21.4622 81.3331 21.6221C81.4277 21.8238 81.4731 22.0443 81.4657 22.2661V23.7948C81.4657 23.8278 81.4525 23.8595 81.429 23.8832C81.4174 23.8942 81.4037 23.9027 81.3887 23.9084C81.3737 23.9141 81.3577 23.9168 81.3416 23.9164H81.0877C81.0711 23.9171 81.0546 23.9145 81.0391 23.9088C81.0236 23.9031 81.0094 23.8944 80.9974 23.8832C80.9739 23.8595 80.9607 23.8278 80.9607 23.7948V22.3131C80.9683 22.1532 80.9393 21.9936 80.8761 21.846C80.8267 21.7438 80.7444 21.6603 80.6419 21.6082C80.5422 21.5624 80.4333 21.5388 80.3231 21.5391C80.2251 21.5418 80.1288 21.5654 80.041 21.6082C79.938 21.6614 79.8542 21.7444 79.8012 21.846C79.7296 21.9913 79.6967 22.152 79.7053 22.3131V23.7948C79.7066 23.8111 79.7042 23.8274 79.6984 23.8428C79.6926 23.8581 79.6835 23.872 79.6718 23.8835C79.66 23.8951 79.6458 23.904 79.6301 23.9097C79.6145 23.9154 79.5978 23.9176 79.5812 23.9164H79.3273C79.3111 23.9172 79.295 23.9146 79.28 23.9089C79.2649 23.9032 79.2512 23.8944 79.2398 23.8832C79.2277 23.8719 79.2181 23.8581 79.2118 23.8429C79.2054 23.8276 79.2025 23.8112 79.2031 23.7948V22.3131C79.2105 22.1527 79.1796 21.9927 79.1129 21.846C79.0591 21.7503 78.9776 21.6724 78.8787 21.6221C78.7827 21.5771 78.6777 21.5535 78.5712 21.553C78.4732 21.5556 78.3769 21.5792 78.2891 21.6221C78.185 21.6747 78.1002 21.7578 78.0465 21.8598C77.9778 22.004 77.9459 22.1624 77.9534 22.3214V23.8086C77.954 23.8251 77.9511 23.8414 77.9448 23.8567C77.9384 23.8719 77.9289 23.8857 77.9167 23.8971C77.9053 23.9083 77.8916 23.917 77.8766 23.9227C77.8615 23.9284 77.8454 23.931 77.8293 23.9302L77.5584 23.9192Z" fill="#060432"/>
<path d="M83.3615 23.9717C83.1973 23.9801 83.0331 23.9547 82.8796 23.897C82.726 23.8394 82.5865 23.7509 82.47 23.6372C82.2382 23.3843 82.1097 23.0566 82.1089 22.7167C82.1056 22.6578 82.1056 22.5987 82.1089 22.5398C82.1057 22.4809 82.1057 22.4218 82.1089 22.3629C82.1172 22.1333 82.1779 21.9085 82.2866 21.705C82.3835 21.5219 82.5324 21.3702 82.7155 21.2683C82.9111 21.1619 83.1322 21.1085 83.3559 21.1135C83.5968 21.1062 83.8351 21.1646 84.0442 21.2821C84.2325 21.3978 84.3809 21.5664 84.4702 21.7658C84.5709 21.9962 84.6199 22.2451 84.6141 22.4956V22.5868C84.6151 22.6031 84.6126 22.6193 84.6067 22.6346C84.6009 22.6498 84.5919 22.6637 84.5802 22.6753C84.5558 22.6975 84.5233 22.7094 84.49 22.7084H82.6195V22.7554C82.6262 22.8949 82.6597 23.0318 82.7183 23.159C82.7725 23.2814 82.8592 23.3874 82.9694 23.4658C83.0822 23.5441 83.2177 23.5847 83.3559 23.5819C83.467 23.5853 83.5776 23.5656 83.6803 23.5239C83.7568 23.4907 83.828 23.4469 83.8919 23.394C83.9311 23.3595 83.967 23.3216 83.9991 23.2806C84.0175 23.249 84.0437 23.2224 84.0752 23.2032C84.1021 23.1927 84.131 23.188 84.1599 23.1894H84.4251C84.4558 23.188 84.486 23.1979 84.5097 23.2171C84.5216 23.2271 84.5304 23.2401 84.5354 23.2547C84.5404 23.2693 84.5412 23.285 84.5379 23.3C84.5279 23.3708 84.4987 23.4376 84.4533 23.4935C84.3893 23.5801 84.3111 23.6558 84.2219 23.7174C84.1107 23.7982 83.9869 23.8607 83.8552 23.9026C83.6954 23.9511 83.5288 23.9744 83.3615 23.9717ZM82.6195 22.3408H84.1006V22.327C84.1039 22.1805 84.074 22.0351 84.0132 21.9013C83.9564 21.7826 83.8676 21.6813 83.7565 21.6083C83.6367 21.5344 83.4973 21.4968 83.3559 21.5005C83.2152 21.4964 83.0766 21.534 82.9581 21.6083C82.8486 21.6816 82.7618 21.7829 82.707 21.9013C82.6475 22.0355 82.6177 22.1806 82.6195 22.327V22.3408Z" fill="#060432"/>
<path d="M85.3872 23.9192C85.371 23.9199 85.3549 23.9174 85.3398 23.9117C85.3248 23.9059 85.3111 23.8972 85.2997 23.886C85.2875 23.8746 85.278 23.8609 85.2717 23.8456C85.2653 23.8304 85.2624 23.814 85.263 23.7975V21.2876C85.2624 21.2716 85.2654 21.2556 85.2717 21.2408C85.2781 21.226 85.2876 21.2127 85.2997 21.2019C85.3106 21.1899 85.3241 21.1804 85.3393 21.1742C85.3544 21.168 85.3708 21.1652 85.3872 21.166H85.6411C85.6578 21.1653 85.6746 21.1682 85.6901 21.1744C85.7057 21.1806 85.7197 21.19 85.7313 21.2019C85.7425 21.2133 85.7512 21.2267 85.757 21.2414C85.7629 21.2561 85.7656 21.2718 85.7652 21.2876V21.5226C85.8605 21.4 85.9818 21.2991 86.1206 21.2268C86.2908 21.1454 86.4788 21.1064 86.6679 21.1134C86.8781 21.1066 87.0858 21.1594 87.266 21.2655C87.4294 21.3657 87.5589 21.5109 87.6384 21.6829C87.7264 21.8787 87.7697 22.0909 87.7654 22.3048V23.7975C87.766 23.814 87.7631 23.8304 87.7567 23.8456C87.7504 23.8609 87.7409 23.8746 87.7287 23.886C87.7173 23.8972 87.7036 23.9059 87.6886 23.9117C87.6735 23.9174 87.6574 23.9199 87.6412 23.9192H87.3591C87.3425 23.9204 87.3258 23.9181 87.3102 23.9124C87.2945 23.9068 87.2803 23.8979 87.2685 23.8863C87.2567 23.8748 87.2476 23.8608 87.2419 23.8455C87.2361 23.8302 87.2337 23.8138 87.235 23.7975V22.3325C87.2478 22.1236 87.1826 21.9173 87.0516 21.752C86.9832 21.6794 86.899 21.6228 86.8053 21.5864C86.7115 21.55 86.6105 21.5348 86.51 21.5419C86.4105 21.5375 86.3112 21.554 86.2188 21.5902C86.1264 21.6265 86.0429 21.6816 85.9739 21.752C85.8306 21.9116 85.7576 22.1203 85.7708 22.3325V23.7975C85.7721 23.8138 85.7698 23.8302 85.764 23.8455C85.7582 23.8608 85.7491 23.8748 85.7373 23.8863C85.7255 23.8979 85.7113 23.9068 85.6957 23.9124C85.68 23.9181 85.6633 23.9204 85.6467 23.9192H85.3872Z" fill="#060432"/>
<path d="M89.599 23.9192C89.4278 23.9271 89.2578 23.8878 89.1082 23.8058C88.9799 23.732 88.8806 23.6181 88.826 23.4824C88.7662 23.3242 88.7375 23.1563 88.7414 22.9876V21.5917H88.3182C88.3019 21.5919 88.2857 21.5888 88.2707 21.5826C88.2556 21.5765 88.2421 21.5673 88.2308 21.5557C88.2185 21.5445 88.2088 21.5307 88.2025 21.5155C88.1961 21.5002 88.1933 21.4837 88.1941 21.4673V21.2876C88.1935 21.2716 88.1965 21.2556 88.2028 21.2408C88.2091 21.226 88.2187 21.2127 88.2308 21.2019C88.2417 21.1899 88.2552 21.1805 88.2704 21.1742C88.2855 21.168 88.3018 21.1652 88.3182 21.166H88.7527V20.2814C88.7523 20.2656 88.755 20.2499 88.7608 20.2352C88.7666 20.2205 88.7754 20.2071 88.7865 20.1957C88.7983 20.1841 88.8124 20.1749 88.8279 20.1687C88.8435 20.1625 88.8601 20.1595 88.8768 20.1598H89.1307C89.1636 20.1599 89.195 20.1729 89.2182 20.1957C89.2303 20.2065 89.2398 20.2198 89.2462 20.2346C89.2525 20.2494 89.2555 20.2654 89.2549 20.2814V21.166H89.9235C89.9407 21.1649 89.958 21.1676 89.9741 21.1738C89.9902 21.18 90.0047 21.1896 90.0166 21.2019C90.0371 21.2259 90.0481 21.2563 90.0476 21.2876V21.4673C90.0485 21.4995 90.0375 21.5309 90.0166 21.5557C90.0043 21.5676 89.9898 21.5769 89.9738 21.5831C89.9578 21.5892 89.9407 21.5922 89.9235 21.5917H89.2549V22.9517C89.248 23.0875 89.2772 23.2227 89.3395 23.3442C89.3734 23.393 89.4201 23.4319 89.4748 23.4567C89.5294 23.4816 89.5899 23.4914 89.6498 23.4852H89.9771C89.9939 23.4844 90.0107 23.4872 90.0262 23.4934C90.0418 23.4996 90.0559 23.5091 90.0673 23.5211C90.0788 23.5323 90.0877 23.5457 90.0935 23.5605C90.0994 23.5752 90.102 23.591 90.1012 23.6068V23.7975C90.1022 23.8303 90.0901 23.862 90.0673 23.886C90.0553 23.8972 90.0411 23.9058 90.0256 23.9115C90.0101 23.9172 89.9936 23.9198 89.9771 23.9192H89.599Z" fill="#060432"/>
<path d="M91.5739 23.9717C91.398 23.9751 91.2228 23.9508 91.0548 23.8998C90.9284 23.8591 90.81 23.7974 90.705 23.7174C90.6258 23.659 90.5571 23.5879 90.5018 23.5073C90.4649 23.4571 90.4399 23.3995 90.4285 23.3387C90.426 23.3217 90.4281 23.3043 90.4346 23.2883C90.441 23.2724 90.4515 23.2583 90.4652 23.2475C90.4899 23.2275 90.5206 23.2159 90.5526 23.2143H90.7952C90.8101 23.2109 90.8255 23.2109 90.8404 23.2143C90.8612 23.2263 90.8794 23.2423 90.894 23.2613C90.9429 23.3129 90.9947 23.3618 91.0491 23.4078C91.1125 23.4607 91.1852 23.5019 91.2635 23.5294C91.3647 23.5655 91.4719 23.5824 91.5795 23.5792C91.7378 23.5848 91.8947 23.5486 92.0337 23.4741C92.0893 23.4448 92.1355 23.4007 92.1669 23.347C92.1983 23.2932 92.2137 23.232 92.2114 23.1701C92.2145 23.0927 92.1884 23.0169 92.1381 22.9572C92.0645 22.8904 91.9754 22.842 91.8785 22.8162C91.7116 22.7606 91.541 22.7162 91.3679 22.6836C91.1888 22.6468 91.016 22.5854 90.8545 22.5011C90.738 22.4414 90.6404 22.3515 90.5724 22.2413C90.5178 22.1351 90.4907 22.0174 90.4934 21.8985C90.4951 21.7638 90.5362 21.6323 90.6119 21.5198C90.6982 21.3917 90.8181 21.2886 90.9589 21.2213C91.1353 21.1404 91.3284 21.1007 91.5231 21.1052C91.6867 21.1009 91.8499 21.1243 92.0055 21.1743C92.1245 21.213 92.236 21.271 92.3356 21.3457C92.41 21.4044 92.4756 21.4733 92.5302 21.5502C92.5654 21.601 92.5894 21.6584 92.6008 21.7188C92.6028 21.7352 92.6008 21.7517 92.5949 21.7671C92.589 21.7825 92.5794 21.7963 92.5669 21.8073C92.5431 21.8289 92.5118 21.8407 92.4794 21.8405H92.2538C92.2322 21.8407 92.211 21.836 92.1917 21.8266C92.1754 21.8152 92.1602 21.8023 92.1465 21.7879C92.1067 21.7398 92.0643 21.6936 92.0196 21.6497C91.9637 21.6016 91.8997 21.5633 91.8306 21.5364C91.7317 21.5032 91.6275 21.4882 91.5231 21.4922C91.3795 21.4816 91.2368 21.5207 91.1197 21.6027C91.0774 21.6359 91.0432 21.678 91.0198 21.7258C90.9964 21.7737 90.9842 21.8261 90.9842 21.8792C90.9834 21.9438 91.0042 22.0069 91.0435 22.0588C91.1048 22.1251 91.1825 22.1746 91.2692 22.2026C91.4327 22.2576 91.5994 22.3028 91.7685 22.338C91.9653 22.3705 92.1557 22.433 92.3327 22.5232C92.4507 22.5885 92.5482 22.6841 92.6149 22.7997C92.6789 22.9187 92.7088 23.0525 92.7014 23.1869C92.6939 23.3212 92.6494 23.4511 92.5725 23.5626C92.4742 23.6949 92.339 23.7966 92.1832 23.8556C91.9895 23.9321 91.7827 23.9715 91.5739 23.9717Z" fill="#060432"/>
<path d="M93.4555 23.9192C93.4389 23.9198 93.4224 23.9172 93.4069 23.9115C93.3914 23.9058 93.3772 23.8972 93.3652 23.886C93.3425 23.862 93.3303 23.8302 93.3314 23.7975V23.4161C93.3309 23.4003 93.3337 23.3846 93.3395 23.3699C93.3453 23.3552 93.354 23.3418 93.3652 23.3304C93.3767 23.3183 93.3907 23.3089 93.4063 23.3026C93.4219 23.2964 93.4387 23.2936 93.4555 23.2944H93.8448C93.8615 23.2942 93.8782 23.2972 93.8937 23.3034C93.9092 23.3095 93.9233 23.3187 93.9351 23.3304C93.9475 23.3411 93.9575 23.3542 93.9643 23.369C93.9711 23.3838 93.9746 23.3999 93.9746 23.4161V23.7975C93.9747 23.8142 93.9712 23.8306 93.9644 23.8459C93.9576 23.8611 93.9476 23.8748 93.9351 23.886C93.9103 23.9078 93.8781 23.9196 93.8448 23.9192H93.4555Z" fill="#060432"/>
<path d="M17.3781 0.583272C17.3014 0.504319 17.209 0.441535 17.1066 0.398758C17.0043 0.355982 16.8941 0.334114 16.7828 0.33449H13.4539C13.345 0.333194 13.237 0.354718 13.1373 0.397624C13.0376 0.44053 12.9483 0.503827 12.8756 0.583272C12.7216 0.739751 12.6365 0.949196 12.6386 1.16653V2.43256C12.0384 1.71775 11.2978 1.12835 10.4607 0.69937C9.47101 0.209886 8.37253 -0.0304613 7.26435 1.20925e-05C6.19983 -0.0187798 5.14298 0.179857 4.16111 0.583272C3.2984 0.9488 2.53581 1.50851 1.93524 2.21695C1.32415 2.95407 0.86173 3.79835 0.572635 4.70479C0.242203 5.73091 0.058957 6.79706 0.0281572 7.87263C0.00558821 8.44944 0.00558821 9.03823 0.0281572 9.639C0.0553238 10.7366 0.238581 11.8252 0.572635 12.8732C0.857471 13.7697 1.32057 14.602 1.93524 15.3223C2.53934 16.0109 3.30244 16.5482 4.16111 16.8897C5.14837 17.2721 6.2029 17.4599 7.26435 17.4425C8.30892 17.4718 9.34753 17.2785 10.3084 16.8758C11.0828 16.5337 11.7815 16.0463 12.365 15.4412V17.6747C12.3976 18.4163 12.2647 19.1558 11.9756 19.8419C11.7408 20.3488 11.3227 20.7525 10.802 20.9752C10.1734 21.2154 9.50163 21.3282 8.82726 21.3069C8.24741 21.3319 7.66917 21.2299 7.13458 21.0084C6.76072 20.8447 6.43832 20.5861 6.20079 20.2593C6.01352 19.9916 5.85381 19.7065 5.72402 19.4079C5.66237 19.2033 5.53713 19.0226 5.36573 18.891C5.20997 18.7888 5.02558 18.7366 4.83818 18.7417H1.20739C0.980922 18.7416 0.762593 18.8245 0.595205 18.9739C0.508054 19.0468 0.440767 19.1398 0.399401 19.2445C0.358035 19.3492 0.343886 19.4624 0.358229 19.5738C0.426433 20.0616 0.57607 20.535 0.801146 20.9752C1.1369 21.6615 1.6043 22.2781 2.17786 22.7914C2.94466 23.4756 3.83944 24.0078 4.81279 24.3587C6.15458 24.8298 7.57465 25.0502 8.99935 25.0083C10.9045 25.0083 12.4975 24.7024 13.7783 24.0906C15.0064 23.5273 16.0236 22.6012 16.6869 21.4424C17.3358 20.2722 17.6602 18.8578 17.6602 17.1993L17.6264 1.16653C17.6275 1.0579 17.606 0.950185 17.5634 0.849921C17.5207 0.749657 17.4577 0.658936 17.3781 0.583272ZM12.3593 9.79932C12.3385 10.4133 12.2008 11.018 11.9531 11.5823C11.7121 12.1402 11.3223 12.6243 10.8246 12.9838C10.2385 13.3727 9.54015 13.5666 8.8329 13.5366C8.10982 13.5738 7.39399 13.3798 6.79322 12.9838C6.29268 12.6153 5.91394 12.1105 5.70427 11.5325C5.46868 10.8896 5.33085 10.2162 5.2952 9.53396C5.27263 9.02165 5.27263 8.4992 5.2952 7.96662C5.33304 7.29545 5.47086 6.63332 5.70427 6.00123C5.91394 5.4232 6.29268 4.91847 6.79322 4.54999C7.39347 4.15285 8.10969 3.95872 8.8329 3.99714C9.5373 3.96741 10.2336 4.15392 10.8246 4.53064C11.3239 4.88032 11.7145 5.35873 11.9531 5.91277C12.2005 6.47811 12.3383 7.08369 12.3593 7.69849C12.3819 7.94174 12.3932 8.2928 12.3932 8.74614C12.3932 9.19948 12.3875 9.55607 12.365 9.79932H12.3593ZM31.8448 0.337253H30.3835C29.3954 0.31223 28.4139 0.500996 27.5088 0.890105C26.6936 1.25697 25.9768 1.80497 25.4155 2.49061V1.16653C25.4098 0.948357 25.3188 0.740662 25.1613 0.586338C25.0038 0.432015 24.7918 0.34285 24.5692 0.337253H21.2318C21.1252 0.337563 21.0198 0.359879 20.9226 0.402744C20.8254 0.44561 20.7385 0.508061 20.6675 0.586035C20.5126 0.742071 20.4264 0.951568 20.4277 1.16929V16.8371C20.4248 16.9477 20.4446 17.0578 20.4858 17.1608C20.5269 17.2638 20.5887 17.3577 20.6675 17.437C20.7409 17.5108 20.8286 17.5693 20.9256 17.6092C21.0225 17.6491 21.1266 17.6695 21.2318 17.6692H24.8033C24.9157 17.6739 25.0279 17.6556 25.1328 17.6156C25.2376 17.5756 25.3328 17.5147 25.4124 17.4367C25.492 17.3588 25.5541 17.2655 25.595 17.1627C25.6358 17.06 25.6544 16.9501 25.6496 16.8399V7.99426C25.6496 6.9936 25.9318 6.22145 26.496 5.67781C27.0602 5.13417 27.8426 4.85775 28.8432 4.84853H31.8364C31.9441 4.85055 32.0511 4.83071 32.1506 4.79028C32.2501 4.74984 32.34 4.68968 32.4147 4.61357C32.4939 4.53474 32.5558 4.44085 32.5966 4.33769C32.6373 4.23452 32.6561 4.12427 32.6517 4.01372V1.16653C32.6549 1.05612 32.6357 0.946188 32.595 0.843181C32.5543 0.740173 32.493 0.646169 32.4147 0.566687C32.3403 0.492987 32.2514 0.4347 32.1535 0.395287C32.0556 0.355874 31.9507 0.336138 31.8448 0.337253ZM50.0778 3.51892C49.3673 2.39165 48.3396 1.48938 47.1184 0.920512C45.6794 0.274031 44.1081 -0.0399546 42.5256 0.00277484C40.7126 0.00277484 39.1704 0.308689 37.899 0.920512C36.6778 1.48938 35.6502 2.39165 34.9396 3.51892C34.2114 4.72733 33.813 6.09916 33.783 7.50222C33.7604 7.92423 33.7491 8.41903 33.7491 8.98663C33.7491 9.55423 33.7604 10.0601 33.783 10.5042C33.8173 11.894 34.1969 13.2545 34.8888 14.4682C35.5657 15.609 36.5799 16.5218 37.7974 17.0859C39.0669 17.6977 40.643 18.0037 42.5256 18.0037C44.4083 18.0037 45.9731 17.6977 47.22 17.0859C48.4375 16.5218 49.4517 15.609 50.1286 14.4682C50.82 13.2535 51.1986 11.8919 51.2316 10.5014C51.2768 10.0555 51.2993 9.54962 51.2993 8.98387C51.3027 8.48826 51.2801 7.9928 51.2316 7.49946C51.2024 6.09665 50.8051 4.72483 50.0778 3.51616V3.51892ZM45.9618 10.3356C45.9166 11.6495 45.6101 12.6438 45.0421 13.3182C44.4741 13.9927 43.6353 14.3318 42.5256 14.3355C41.4141 14.3355 40.5678 13.9964 39.9866 13.3182C39.4055 12.6401 39.0933 11.6459 39.05 10.3356C39.0274 10.0039 39.0162 9.55884 39.0162 9.00322C39.0162 8.4476 39.0162 8.00255 39.05 7.67084C39.0951 6.37993 39.4083 5.39309 39.9866 4.70202C40.5649 4.01096 41.3972 3.67095 42.5256 3.67095C43.6541 3.67095 44.475 4.01372 45.0421 4.70202C45.6091 5.39032 45.9166 6.37993 45.9618 7.67084C45.9843 8.00255 45.9956 8.4476 45.9956 9.00322C45.9956 9.55884 45.9843 10.0122 45.9618 10.3328V10.3356ZM72.3111 12.7184L66.9735 2.14508L66.1272 0.486521C66.0634 0.359527 65.9646 0.25259 65.8419 0.177836C65.7192 0.103082 65.5777 0.0635039 65.4332 0.063589H62.9957C62.8512 0.0631806 62.7095 0.102628 62.5868 0.177418C62.464 0.252209 62.3653 0.359323 62.3017 0.486521L61.4554 2.14508L58.8938 7.24791L55.4633 0.436766C55.3995 0.309773 55.3007 0.202835 55.178 0.128081C55.0554 0.0533273 54.9138 0.0137492 54.7693 0.0138343H51.0088C50.8785 0.0139907 50.7503 0.046305 50.6361 0.107797C50.5219 0.169289 50.4253 0.257979 50.3553 0.365677C50.2853 0.473375 50.2442 0.596614 50.2356 0.72402C50.227 0.851426 50.2513 0.978895 50.3063 1.09466L56.0529 13.1109L57.4635 16.088L58.1998 17.5614C58.2326 17.6257 58.2743 17.6853 58.324 17.7383C58.4122 17.8178 58.5182 17.876 58.6334 17.9083C58.7486 17.9406 58.87 17.9461 58.9878 17.9244C59.1056 17.9026 59.2166 17.8542 59.3119 17.7831C59.4073 17.7119 59.4844 17.6199 59.537 17.5144L61.2861 14.0176L61.6726 13.2104L64.2116 7.91133L68.8214 17.5503C68.8841 17.6797 68.983 17.789 69.1066 17.8656C69.2302 17.9421 69.3734 17.9828 69.5196 17.9828C69.6658 17.9828 69.809 17.9421 69.9326 17.8656C70.0562 17.789 70.1551 17.6797 70.2178 17.5503L72.3055 13.3763C72.3575 13.2738 72.385 13.1611 72.386 13.0466C72.387 12.9321 72.3614 12.819 72.3111 12.7156V12.7184Z" fill="#060432"/>
<path d="M75.9843 5.21064L75.9476 1.75531C75.9486 1.73521 75.9439 1.71524 75.9339 1.69766C75.924 1.68007 75.9092 1.66557 75.8912 1.65579L73.2168 0.243253C73.1966 0.230735 73.1813 0.211984 73.1733 0.189977C73.1652 0.167969 73.1649 0.143962 73.1723 0.121752C73.1798 0.0995415 73.1946 0.080398 73.2144 0.0673572C73.2342 0.0543163 73.2579 0.0481245 73.2817 0.0497557H78.5374C78.5544 0.0516666 78.5706 0.0574992 78.5847 0.0667751C78.5989 0.0760509 78.6106 0.0885001 78.6189 0.103091C78.6272 0.117683 78.6318 0.133995 78.6323 0.150678C78.6329 0.167361 78.6294 0.183935 78.6221 0.199024L76.1846 5.25486C76.175 5.27686 76.1579 5.29487 76.1362 5.30576C76.1144 5.31666 76.0895 5.31974 76.0657 5.31448C76.0419 5.30923 76.0207 5.29596 76.0058 5.27698C75.991 5.25801 75.9833 5.23453 75.9843 5.21064Z" fill="#060432"/>
<path d="M73.0983 11.2284L72.9544 7.74547C72.9558 7.72532 72.9512 7.70522 72.9411 7.68757C72.9311 7.66992 72.9161 7.65548 72.898 7.64596L70.1925 6.33293C70.1695 6.32248 70.1512 6.30419 70.141 6.28148C70.1307 6.25876 70.1293 6.23318 70.1369 6.20949C70.1445 6.1858 70.1606 6.16563 70.1823 6.15274C70.2039 6.13985 70.2296 6.13512 70.2546 6.13943H75.5922C75.6091 6.14113 75.6254 6.14688 75.6396 6.15619C75.6538 6.16549 75.6654 6.17806 75.6735 6.19279C75.6816 6.20752 75.6858 6.22397 75.6859 6.24069C75.686 6.25741 75.6819 6.27389 75.674 6.2887L73.2958 11.2644C73.2845 11.2827 73.2678 11.2973 73.2479 11.3061C73.228 11.3148 73.2058 11.3175 73.1843 11.3136C73.1628 11.3096 73.1431 11.2994 73.1277 11.2842C73.1123 11.269 73.1021 11.2495 73.0983 11.2284Z" fill="#060432"/>
</g>
<defs>
<clipPath id="clip0_105_541">
<rect width="94" height="25" fill="white"/>
</clipPath>
</defs>
</svg>
