<?xml version="1.0" encoding="UTF-8"?>
<svg id="Layer_2" data-name="Layer 2" xmlns="http://www.w3.org/2000/svg" viewBox="0 0 767.28 81.75">
  <defs>
    <style>
      .cls-1 {
        fill: #f5a31c;
      }

      .cls-2 {
        fill: #f6be14;
      }

      .cls-3 {
        fill: #e94333;
      }

      .cls-4 {
        fill: #e71e25;
      }

      .cls-5 {
        fill: #ef6022;
      }

      .cls-6 {
        fill: #f39b1e;
      }

      .cls-7 {
        fill: #666;
      }

      .cls-8 {
        fill: #de1e35;
      }

      .cls-9 {
        fill: #247cbf;
      }

      .cls-10 {
        fill: #26ab50;
      }

      .cls-11 {
        fill: #5081c2;
      }

      .cls-12 {
        fill: #4d4d4d;
      }

      .cls-13 {
        fill: #fff;
        stroke: #eaeaea;
        stroke-miterlimit: 10;
        stroke-width: 1.39px;
      }

      .cls-14 {
      fill: #4d4d4d;
      }
    </style>
  </defs>
  <g id="Layer_1-2" data-name="Layer 1">
    <g>
      <g>
        <rect class="cls-13" x="312.59" y=".69" width="142.11" height="80.37" rx="17.36" ry="17.36"/>
        <g>
          <path d="M99.4654 65.562C96.0246 71.4189 90.6068 74.3473 83.2125 74.3473C78.454 74.3473 74.4272 73.1028 71.1325 70.6135C67.8382 68.1242 65.6419 64.3172 64.5436 59.1924C61.6884 64.0978 57.1128 67.8316 50.8165 70.3938C44.5205 72.9563 37.5288 74.2376 29.8415 74.2376C10.294 74.2376 0.520325 65.0861 0.520325 46.7831V5.82143C0.520325 4.28397 1.03279 3.00277 2.05778 1.97782C3.15594 0.879654 4.47373 0.330566 6.01119 0.330566C7.54862 0.330566 8.82982 0.879654 9.85478 1.97782C10.9529 3.00277 11.502 4.28397 11.502 5.82143V27.1259C15.3822 23.1725 20.2142 21.1958 25.9979 21.1958C30.537 21.1958 34.5636 22.294 38.0777 24.4903C41.6653 26.6135 44.4472 29.5785 46.4238 33.3854C48.4737 37.1924 49.4987 41.5118 49.4987 46.3439C49.4987 49.7847 48.9864 53.0061 47.9613 56.0078C46.9362 59.0095 45.4355 61.6449 43.4589 63.9145C49.2426 62.3771 53.8914 59.4854 57.4054 55.2393C60.9198 50.9928 62.6767 45.9048 62.6767 39.9747V26.6867C62.6767 25.1492 63.1894 23.868 64.2141 22.8431C65.3125 21.7449 66.6302 21.1958 68.1677 21.1958C69.7051 21.1958 70.9864 21.7449 72.0111 22.8431C73.1095 23.868 73.6587 25.1492 73.6587 26.6867V49.968C73.6587 55.0195 74.464 58.7533 76.0744 61.1694C77.6851 63.5851 80.2108 64.7931 83.652 64.7931C87.6051 64.7931 90.6436 63.4021 92.7667 60.6202C94.963 57.765 96.0614 53.7018 96.0614 48.4306V31.7383H89.0329C87.4955 31.7383 86.1777 31.2258 85.0794 30.2008C84.0547 29.1758 83.5419 27.9313 83.5419 26.467C83.5419 25.0028 84.0547 23.7582 85.0794 22.7333C86.1777 21.7083 87.4955 21.1958 89.0329 21.1958H96.0614V5.93123C96.0614 4.39381 96.5737 3.1126 97.5985 2.08765C98.6968 0.989453 100.015 0.440382 101.552 0.440382C103.089 0.440382 104.371 0.989453 105.396 2.08765C106.494 3.1126 107.043 4.39381 107.043 5.93123V21.1958H121.319C122.857 21.1958 124.138 21.7083 125.163 22.7333C126.261 23.7582 126.81 25.0028 126.81 26.467C126.81 27.9313 126.261 29.1758 125.163 30.2008C124.138 31.2258 122.857 31.7383 121.319 31.7383H107.043V49.858C107.043 58.863 109.569 63.3657 114.62 63.3657C117.11 63.3657 119.159 62.4139 120.77 60.5102C121.649 59.4854 122.454 58.7165 123.186 58.2041C123.918 57.6185 124.76 57.3255 125.712 57.3255C127.249 57.3255 128.53 57.8383 129.555 58.863C130.58 59.8148 131.093 61.0593 131.093 62.5968C131.093 64.5005 130.324 66.3674 128.787 68.1975C127.249 70.0279 125.199 71.4921 122.637 72.5901C120.074 73.7617 117.366 74.3473 114.511 74.3473C111.143 74.3473 108.178 73.5784 105.615 72.0413C103.126 70.5767 101.076 68.4172 99.4654 65.562ZM72.4506 10.6534C71.279 11.8248 69.8516 12.4104 68.1677 12.4104C66.4837 12.4104 65.0563 11.8248 63.8847 10.6534C62.7135 9.48201 62.1279 8.09097 62.1279 6.48033C62.1279 4.79645 62.7135 3.36886 63.8847 2.19745C65.1295 1.02608 66.557 0.440382 68.1677 0.440382C69.8516 0.440382 71.279 1.02608 72.4506 2.19745C73.6219 3.36886 74.2075 4.79645 74.2075 6.48033C74.2075 8.09097 73.6219 9.48201 72.4506 10.6534ZM15.4555 59.0827C18.0911 61.9379 21.3856 63.3657 25.339 63.3657C29.0728 63.3657 32.1843 61.9379 34.6733 59.0827C37.1626 56.2276 38.4071 52.457 38.4071 47.7717C38.4071 43.1593 37.1262 39.3887 34.5636 36.4603C32.0012 33.5319 28.8165 32.0677 25.0095 32.0677C21.2026 32.0677 18.0179 33.4954 15.4555 36.3506C12.893 39.2058 11.6118 42.9396 11.6118 47.552C11.6118 52.3105 12.893 56.1543 15.4555 59.0827Z" fill="#00353B" transform="scale(0.5) translate(704,45)"/>
        </g>
      </g>
      <g>
        <rect class="cls-13" x=".69" y=".69" width="142.11" height="80.37" rx="17.36" ry="17.36"/>
        <g>
          <path class="cls-9" d="M118.56,57.08v.47c-2.01,0-4.03-.02-6.04,.02-.67,.01-1.08-.05-1.15-.89-.08-.93-.44-1.84-.56-2.77-.09-.69-.41-.8-1.02-.8-2.68,.02-5.37,.04-8.05,0-.7-.01-.98,.27-1.17,.87-.32,1.01-.7,2-1.06,3-.12,.33-.21,.62-.7,.61-2.43-.03-4.86-.01-7.33-.01,.04-.23,.03-.35,.07-.45,3.72-8.88,7.43-17.75,11.16-26.62,.53-1.25,1.49-1.99,2.89-2.14,2.09-.22,4.18-.04,6.27-.11,.65-.02,.66,.46,.75,.85,1.36,6.5,2.69,13.02,4.07,19.51,.6,2.83,1.03,5.7,1.87,8.48Zm-11.44-20.91c-1.32,3.6-2.54,6.95-3.79,10.29-.18,.47-.22,.72,.41,.71,1.65-.02,3.31-.03,4.96,0,.56,0,.68-.2,.57-.7-.71-3.34-1.4-6.68-2.16-10.3Z"/>
          <path class="cls-9" d="M87.11,27.72c1.15,0,2.3,.17,3.41,.51,.42,.13,.84,.26,1.26,.35,.84,.19,1.29,.32,1.09,1.22-.38,1.77-.61,3.57-.92,5.46-2.23-1.08-4.56-1.54-7-1.38-.96,.06-1.88,.26-2.68,.82-1.28,.9-1.35,2.24-.17,3.28,.9,.78,1.97,1.3,3.02,1.84,1.16,.59,2.3,1.21,3.37,1.95,4.82,3.36,3.81,9.16,1.29,12.06-2.13,2.46-4.98,3.48-8.08,3.98-.22,.03-1.48,.29-3.34,.29l-2.24-.05c-1.18-.06-3.03-.62-4.52-1.07-1.1-.33-1.41-.81-1.17-1.9,.31-1.42,.51-2.86,.71-4.3,.09-.67,.26-.89,.96-.53,2.43,1.24,5.02,1.8,7.76,1.65,1.04-.06,2.03-.27,2.9-.84,1.43-.94,1.54-2.74,.26-3.87-.81-.71-1.75-1.2-2.7-1.67-1.17-.57-2.3-1.2-3.37-1.94-5.5-3.81-3.82-10.05-.27-12.87,1.93-1.53,4.15-2.35,6.56-2.74,.19-.03,.7-.24,2.64-.24h1.24Z"/>
          <path class="cls-1" d="M33.09,32.47c-.11-.25-.24-.47-.5-.62-2.43-1.31-4.93-2.41-7.65-2.95v-.71c3.86,.01,7.72,.05,11.58,.04,3.17-.01,4.02,1.14,4.4,3.62,.45,2.87,1.08,5.72,1.68,8.56,.09,.42,.06,.76-.13,1.11-.49-.04-.57-.48-.76-.8-1.87-3.2-4.4-5.77-7.48-7.82-.34-.22-.64-.62-1.15-.44Z"/>
          <path class="cls-9" d="M33.09,32.47c.51-.19,.81,.21,1.15,.44,3.08,2.05,5.61,4.62,7.48,7.82,.19,.32,.27,.76,.76,.8,.71,2.11,1.26,4.25,1.68,6.77,2.04-5.46,3.95-10.59,5.86-15.73,.42-1.14,.87-2.27,1.25-3.43,.21-.65,.51-.93,1.25-.91,2.29,.05,4.58,.02,6.87,.02,.25,.34-.02,.61-.12,.86-3.74,9.21-7.5,18.4-11.24,27.61-.23,.57-.46,.88-1.16,.86-2.13-.06-4.26-.04-6.39,0-.55,0-.82-.12-.97-.7-2.12-8.13-4.26-16.26-6.4-24.39Z"/>
          <path class="cls-9" d="M61.73,57.56c-.91,0-1.82-.07-2.72,.02-.96,.1-1.06-.25-.91-1.1,.67-3.92,1.28-7.85,1.92-11.77,.85-5.21,1.73-10.41,2.53-15.62,.11-.73,.37-.88,1.04-.87,1.93,.04,3.87,.04,5.8,0,.68-.01,.85,.13,.73,.86-1.5,9.13-2.96,18.26-4.42,27.39-.12,.74-.3,1.22-1.24,1.1-.89-.11-1.81-.02-2.72-.02Z"/>
        </g>
      </g>
      <g>
        <rect class="cls-13" x="468.53" y=".69" width="142.11" height="80.37" rx="17.36" ry="17.36"/>
        <g>
          <path d="M494.7,37.94c.23-.84,.41-1.69,.7-2.51,1.4-3.99,5.19-5.86,9.12-4.35,1.61,.62,2.98,.6,4.55-.05,2.81-1.17,5.47-.82,7.81,1.27,.57,.51,.78,.86,.02,1.53-3.54,3.1-3.17,7.73,.78,10.37,.5,.33,.69,.55,.44,1.17-.82,2.04-1.96,3.87-3.45,5.48-1.24,1.34-2.77,1.77-4.43,.99-2.13-1-4.16-.96-6.26,.02-1.71,.8-3.17,.28-4.4-1.05-2.51-2.71-4.02-5.91-4.63-9.55-.06-.36-.16-.72-.24-1.08,0-.75,0-1.51,0-2.26Z"/>
          <path d="M512.27,23.38c.17,2.96-1.41,5.48-4.02,6.37-.53,.18-1.2,.54-1.64,.09-.35-.37-.12-1.03,.03-1.55,.62-2.13,1.9-3.67,4-4.49,.3-.11,.67-.1,.87-.42h.75Z"/>
          <g>
            <path d="M566.25,59.28c0-.29,0-.58,0-.88,.02-.71-.18-1.53,.11-2.1,.33-.62,1.22-.17,1.86-.28,2.01-.35,3.52-2.86,2.83-4.78-2.08-5.73-4.15-11.47-6.26-17.19-.37-.99-.32-1.36,.9-1.33,2.93,.06,2.95,0,3.83,2.8,1.24,3.94,2.46,7.89,3.7,11.84,.08,.27,.06,.59,.5,.84,.52-1.63,1.04-3.24,1.54-4.84,1-3.19,2.02-6.37,2.97-9.57,.23-.77,.55-1.06,1.37-1.06,3.22,0,3.21-.04,2.12,2.95-2.14,5.89-4.28,11.77-6.37,17.68-1.03,2.91-2.59,5.23-5.84,5.92h-3.26Z"/>
            <path d="M526.15,38.67c0-4.05,.02-8.11-.02-12.16,0-.85,.18-1.18,1.1-1.14,3.5,.14,7.03-.3,10.51,.22,4.9,.74,7.51,4.27,7.19,9.49-.27,4.41-3.76,7.68-8.4,7.83-1.67,.06-3.34,.06-5.01,0-.9-.04-1.24,.17-1.21,1.15,.08,2.3,0,4.6,.04,6.89,.02,.8-.2,1.07-1.04,1.08-3.16,.03-3.16,.06-3.16-3.09,0-3.43,0-6.85,0-10.28Zm4.18-4.47c0,1.5,0,3,0,4.5,0,.48,.07,.8,.67,.79,1.83-.05,3.68,.07,5.5-.13,2.63-.29,4.23-2.26,4.32-5,.09-2.71-1.29-4.63-3.86-5.23-2.01-.47-4.07-.14-6.11-.22-.58-.02-.51,.42-.51,.79,0,1.5,0,3,0,4.5Z"/>
            <path d="M558.7,49.09c-2.5,2.96-5.77,3.85-9.09,2.59-2.22-.84-3.57-2.85-3.53-5.25,.03-2.32,1.33-4.04,3.64-4.86,2.53-.89,5.19-.81,7.81-.94,.9-.05,1.23-.29,1.2-1.24-.07-1.99-.71-2.98-2.42-3.47-2.13-.6-4.22,.02-5.15,1.52-.23,.36-.23,.97-.85,.97-1,0-2.01,.05-2.99-.1-.44-.07-.21-.68-.12-.99,.39-1.42,1.19-2.59,2.45-3.36,3-1.85,6.19-1.9,9.38-.63,2.41,.96,3.62,2.91,3.64,5.5,.04,4.1,0,8.19,.03,12.29,0,.72-.25,.98-.95,.92-.91-.08-2.03,.36-2.67-.19-.66-.56-.02-1.74-.38-2.73Zm0-4.62c-.16-.34,.32-1.2-.44-1.13-2.23,.19-4.55-.1-6.66,.81-1.84,.79-2.06,3.23-.39,4.25,1.71,1.05,3.52,.91,5.25,.02,1.55-.8,2.29-2.13,2.25-3.95Z"/>
          </g>
        </g>
      </g>
      <g>
        <rect class="cls-13" x="156.93" y=".69" width="142.11" height="80.37" rx="17.36" ry="17.36"/>
        <g>
          <path class="cls-6" d="M259.35,42.01c0,10.86-8.8,19.66-19.66,19.66-4.47,0-8.59-1.49-11.89-4,4.73-3.59,7.78-9.27,7.78-15.66s-3.05-12.08-7.78-15.67c3.3-2.51,7.42-3.99,11.89-3.99,10.86,0,19.66,8.8,19.66,19.66Z"/>
          <path class="cls-5" d="M235.59,42.01c0,6.39-3.05,12.07-7.78,15.66-4.72-3.59-7.78-9.27-7.78-15.66s3.05-12.08,7.78-15.67c4.73,3.59,7.78,9.28,7.78,15.67Z"/>
          <path class="cls-4" d="M227.81,57.67c-3.3,2.51-7.42,4-11.88,4-10.86,0-19.66-8.8-19.66-19.66s8.8-19.66,19.66-19.66c4.46,0,8.58,1.49,11.88,3.99-4.72,3.59-7.78,9.28-7.78,15.67s3.05,12.07,7.78,15.66Z"/>
        </g>
      </g>
      <g>
        <rect class="cls-13" x="624.48" y=".69" width="142.11" height="80.37" rx="17.36" ry="17.36"/>
        <g>
          <g>
            <path class="cls-10" d="M672.37,52.38c-2.89,2.48-6.64,3.97-10.74,3.97-6.24,0-11.67-3.47-14.48-8.58l5.01-4.27c1.46,3.81,5.15,6.51,9.47,6.51,2.1,0,4.05-.63,5.67-1.73l5.07,4.1Z"/>
            <path class="cls-3" d="M672.7,27.64l-4.61,4.4c-1.76-1.45-4.01-2.32-6.46-2.32-4.26,0-7.91,2.63-9.41,6.35l-5.08-4.11c2.8-5.12,8.24-8.59,14.48-8.59,4.26,0,8.15,1.61,11.07,4.26Z"/>
            <path class="cls-11" d="M678.13,39.87c0,1.12-.11,2.21-.33,3.27-.74,3.67-2.69,6.9-5.43,9.25l-5.07-4.1c1.82-1.23,3.22-3.03,3.94-5.15h-9.61v-6.35h16.21c.19,1,.29,2.03,.29,3.08Z"/>
            <path class="cls-2" d="M651.49,39.87c0,1.28,.24,2.51,.67,3.64l-5.01,4.27c-1.28-2.35-2.01-5.04-2.01-7.91s.73-5.55,2.01-7.9l5.08,4.11c-.47,1.17-.74,2.45-.74,3.79Z"/>
          </g>
          <g>
            <path class="cls-7" d="M727.01,62.78l4.98-10.12s-4.22-11.68-6.37-17.51c-.37-.99-.32-1.34,.85-1.36,3.12-.04,3.19-.67,4,2.99,.9,4.03,1.95,6.25,3.19,10.23,.08,.25,.42,1.89,.82,2.36,.05,.06,.14,.03,.16-.03,.52-1.61,1.14-3.11,1.63-4.7,1.02-3.25,2.06-6.49,3.02-9.75,.23-.78,.56-1.08,1.4-1.08,3.28,0,3.27-.04,2.16,3.01-2.18,6-4.19,10.85-6.32,16.86-1.08,2.74-2.91,6.87-4.02,9.11h-5.51Z"/>
            <path class="cls-7" d="M686.26,39.85c0-4.13,.02-8.26-.02-12.38,0-.86,.19-1.2,1.12-1.16,3.57,.15,7.16-.3,10.71,.23,4.99,.75,7.65,4.35,7.32,9.66-.28,4.49-3.83,7.82-8.56,7.98-1.7,.06-3.41,.06-5.11,0-.92-.04-1.26,.17-1.23,1.18,.08,2.34,0,4.68,.04,7.02,.02,.81-.2,1.09-1.06,1.1-3.22,.03-3.22,.07-3.22-3.15,0-3.49,0-6.98,0-10.47Zm4.26-4.56c0,1.53,0,3.06,0,4.59,0,.49,.07,.82,.68,.8,1.87-.05,3.75,.07,5.6-.14,2.68-.3,4.3-2.3,4.4-5.09,.09-2.76-1.32-4.72-3.93-5.33-2.05-.48-4.15-.15-6.22-.22-.59-.02-.52,.43-.52,.8,0,1.53,0,3.06,0,4.59Z"/>
            <path class="cls-7" d="M719.41,50.47c-2.55,3.01-5.88,3.92-9.26,2.64-2.26-.86-3.63-2.91-3.6-5.35,.03-2.36,1.36-4.12,3.71-4.95,2.58-.91,5.28-.82,7.95-.96,.91-.05,1.26-.29,1.22-1.26-.08-2.02-.72-3.04-2.46-3.53-2.17-.62-4.3,.02-5.25,1.54-.23,.37-.24,.98-.86,.98-1.02,0-2.05,.05-3.05-.1-.44-.07-.21-.69-.12-1.01,.39-1.45,1.22-2.63,2.5-3.42,3.06-1.89,6.31-1.94,9.55-.64,2.45,.98,3.69,2.96,3.71,5.6,.04,4.17,0,8.35,.03,12.52,0,.73-.25,1-.97,.94-.92-.09-2.06,.37-2.72-.2-.67-.57-.02-1.77-.38-2.78Zm0-4.7c-.16-.35,.32-1.22-.45-1.15-2.27,.19-4.63-.11-6.79,.83-1.87,.81-2.09,3.29-.4,4.33,1.74,1.07,3.58,.93,5.35,.02,1.58-.81,2.33-2.17,2.29-4.02Z"/>
          </g>
        </g>
      </g>
    </g>
  </g>
</svg>